<svg width="84" height="34" viewBox="0 0 84 34" fill="none" xmlns="http://www.w3.org/2000/svg">
<g clip-path="url(#clip0_1303_778)">
<path d="M25.6508 15.9152C25.6508 15.9152 25.6529 15.9141 25.654 15.9131C25.6572 15.9109 25.654 15.9131 25.6508 15.9152ZM1.0483 15.7454C1.03335 15.771 1.05151 15.7721 1.06646 15.7785C1.08141 15.7849 1.10704 15.7903 1.11772 15.7924C1.63247 15.9408 2.17393 16.0968 2.67693 16.2399C2.69509 16.2452 2.71004 16.2559 2.72926 16.2516C2.16859 16.0829 1.60684 15.9174 1.05151 15.7443C1.05044 15.7443 1.0483 15.7443 1.0483 15.7443M33.5088 20.0973C32.0232 19.8496 28.2406 19.8528 25.922 19.8805C25.7949 19.8207 25.67 19.762 25.544 19.7033C24.554 19.2398 23.5576 18.7784 22.5761 18.3138C22.7427 18.1622 22.9083 18.0063 23.0791 17.8589C23.0834 17.8589 23.0845 17.8621 23.0866 17.8621C24.5497 18.4036 26.8341 19.1917 28.3292 19.7H28.3313C28.3313 19.7 28.3345 19.7 28.3367 19.7022C28.3367 19.7022 28.3367 19.7022 28.3367 19.7C28.4424 19.7225 28.6667 19.5356 28.7532 19.2419C28.8418 18.9482 28.8055 18.662 28.7062 18.6225C28.7062 18.6225 25.3357 17.4413 24.0542 16.9906C24.7313 16.3873 25.4393 15.8212 26.1271 15.2349C26.817 14.6476 27.5037 14.058 28.2042 13.4835C28.5556 13.1951 28.9038 12.9057 29.2583 12.6227C29.9674 12.0546 30.6787 11.4875 31.4273 10.9631C31.6142 10.8328 31.8043 10.7015 32.0008 10.5787C32.1236 10.5018 32.2529 10.4217 32.3767 10.3565C32.46 10.3149 32.5465 10.286 32.6288 10.2465C32.632 10.2465 32.633 10.2433 32.6363 10.2422C32.6384 10.2262 32.616 10.2369 32.6256 10.2241C32.6395 10.2155 32.6555 10.2102 32.6662 10.1985C32.6715 10.1461 32.7003 10.0607 32.6619 10.0201C32.6128 10.0105 32.5764 10.0468 32.5327 10.0532C32.5241 10.0393 32.5337 10.0372 32.5401 10.0287C32.3543 10.129 32.1642 10.2241 31.9752 10.3159C31.9442 10.3309 31.893 10.3458 31.8684 10.364C31.8556 10.3725 31.8438 10.3757 31.831 10.3821C31.5619 10.5178 31.2896 10.6491 31.0204 10.7848C30.7684 10.9119 30.5153 11.0368 30.2665 11.1692C30.0176 11.3027 29.7645 11.4255 29.5168 11.5569C28.5225 12.0866 27.5282 12.6056 26.5564 13.1535C26.6664 13.0691 26.77 12.9751 26.8928 12.9057C27.0167 12.8363 27.1448 12.769 27.2698 12.6985C28.0238 12.2788 28.7628 11.8687 29.5349 11.4565C30.0401 11.1885 30.5484 10.9247 31.0685 10.6545C31.5074 10.4281 31.9698 10.1888 32.4365 9.97846C32.4974 9.95069 32.5861 9.9005 32.6662 9.91225C32.6747 9.91225 32.6918 9.92186 32.7067 9.9272C32.7452 9.94108 32.7644 9.94963 32.7804 9.97526C32.8061 10.0169 32.8338 10.1472 32.8029 10.222C32.789 10.2551 32.7719 10.2529 32.7473 10.27C32.7377 10.2764 32.7313 10.285 32.7217 10.2924C32.7025 10.3074 32.68 10.3181 32.6597 10.3298C32.5284 10.4024 32.4077 10.474 32.286 10.5509C32.0446 10.7057 31.8054 10.867 31.5726 11.0272C31.4935 11.0817 31.4177 11.1383 31.3398 11.1938C30.8752 11.5227 30.4299 11.8687 29.9877 12.2201C29.6844 12.4615 29.3779 12.7082 29.0885 12.9602C29.0255 13.0147 28.9625 13.067 28.9006 13.1193C28.2544 13.6661 27.6126 14.2214 26.975 14.7682C26.5457 15.1356 26.126 15.5094 25.6967 15.8725C25.6938 15.8775 25.6949 15.8786 25.6999 15.8757C26.7219 15.0107 27.7578 14.1584 28.8044 13.318C27.9618 14.026 27.1256 14.7415 26.2947 15.4624C26.2915 15.4742 26.3076 15.4571 26.3054 15.4581C26.4079 15.3791 26.5115 15.283 26.6194 15.2178C26.299 15.5468 25.9466 15.8522 25.6027 16.1641C25.3443 16.3969 25.0837 16.6329 24.8338 16.87C24.7622 16.9383 24.6779 17.0077 24.6159 17.0804C24.6084 17.0878 24.5892 17.1103 24.601 17.1135C24.6981 17.0451 24.7847 16.9629 24.8733 16.8849C25.324 16.493 25.7746 16.1042 26.2264 15.7166C26.5895 15.4047 26.9537 15.0972 27.3168 14.7885C27.4994 14.6337 27.6841 14.4842 27.8678 14.3304C27.8732 14.3261 27.8764 14.3197 27.8828 14.3154C27.902 14.3005 27.918 14.2855 27.9351 14.2716C28.279 13.9822 28.6261 13.6992 28.97 13.4151C29.5178 12.9602 30.0913 12.5106 30.6552 12.0727C30.9425 11.8506 31.2276 11.6381 31.5202 11.4266C31.6174 11.3561 31.7146 11.2856 31.815 11.2162C32.1215 11.0037 32.4152 10.82 32.7495 10.6395C32.8659 10.5765 32.9769 10.5253 33.041 10.4259C33.1083 10.3245 33.1553 10.176 33.1307 10.0276C33.1083 9.89089 33.0496 9.78516 32.9353 9.72429C32.994 9.77021 33.0378 9.83215 33.0709 9.90904C33.1029 9.9806 33.1307 10.0788 33.1158 10.1899C33.1104 10.2284 33.0912 10.2732 33.0752 10.3117C33.0421 10.395 33.0036 10.4526 32.9385 10.5007C32.9054 10.5242 32.8744 10.553 32.8424 10.5701C32.773 10.6107 32.6971 10.6449 32.6245 10.6822C32.4066 10.7912 32.2005 10.9204 32.004 11.0443C31.8663 11.1308 31.737 11.2237 31.5971 11.2952C31.8791 11.0539 32.2069 10.8253 32.5476 10.6299C32.6277 10.5829 32.7174 10.5327 32.8029 10.4815C32.8883 10.4302 32.9577 10.3608 32.9951 10.2711C33.0389 10.1664 33.0303 10.034 32.9844 9.93788C32.9396 9.84603 32.8701 9.78196 32.7772 9.73924C32.9129 9.67409 33.0463 9.60147 33.1724 9.52458C33.2663 9.46691 33.3635 9.40924 33.4351 9.33235C33.4607 9.30458 33.4906 9.28322 33.513 9.25439C33.5547 9.19992 33.5825 9.13798 33.6124 9.07284C33.6423 9.00876 33.6658 8.92759 33.6722 8.8507C33.6775 8.76527 33.6508 8.69158 33.6241 8.61789C33.5985 8.5474 33.5664 8.4876 33.5237 8.43633C33.4372 8.33168 33.3326 8.25371 33.1798 8.21954C33.1029 8.20138 33.0164 8.18643 32.9289 8.19711C32.1802 8.29109 31.5576 8.51964 30.9403 8.73643C31.0621 8.70866 31.2244 8.63711 31.3504 8.60721C30.9297 8.75992 30.51 8.93187 30.1127 9.10274C29.8724 9.20526 29.662 9.35264 29.4505 9.48293C29.6428 9.32167 29.8307 9.1572 30.0091 8.97992C30.1853 8.80371 30.3423 8.60294 30.4929 8.4043C30.5634 8.31138 30.6413 8.20886 30.7139 8.09779C30.7866 7.98886 30.8538 7.87139 30.8805 7.73149C30.8944 7.6578 30.9051 7.5542 30.888 7.4912C30.8709 7.43032 30.8271 7.37479 30.7844 7.32887C30.7449 7.28722 30.6936 7.2477 30.636 7.21032C30.5836 7.17615 30.5174 7.13129 30.4512 7.12916C30.4192 7.12916 30.3775 7.14091 30.3369 7.14838C30.1383 7.18042 30.007 7.26586 29.8777 7.35557C29.8233 7.39401 29.7741 7.43353 29.7229 7.46984C29.3 7.77634 28.9283 8.09673 28.5439 8.42779C27.9672 8.92332 27.4022 9.42419 26.8319 9.92079C26.2841 10.3982 25.7351 10.8777 25.1958 11.3551C25.1713 11.3764 25.1456 11.3967 25.1211 11.4181C24.3575 12.0791 23.6003 12.7551 22.841 13.413C22.2675 13.9107 21.7025 14.4169 21.1333 14.9135C21.5477 14.5173 21.9535 14.1114 22.3711 13.7163C22.4747 13.618 22.5751 13.5166 22.6808 13.4205C22.7876 13.3244 22.8826 13.2144 22.9884 13.1182C23.0951 13.0211 23.1934 12.9164 23.2981 12.8192C23.4038 12.721 23.5074 12.6216 23.6088 12.5191C24.4215 11.7075 25.2364 10.899 26.048 10.0874C27.0637 9.07284 28.0836 8.06255 29.0789 7.03091C29.2295 6.87499 29.3779 6.71906 29.5221 6.56101C29.5723 6.50654 29.6204 6.45101 29.6588 6.3912C29.74 6.26518 29.7827 6.12635 29.7848 5.97684C29.7848 5.93091 29.7848 5.88392 29.7816 5.83693C29.7741 5.73548 29.7069 5.64043 29.6364 5.56995C29.6171 5.55072 29.5969 5.53257 29.5744 5.51548C29.5114 5.46635 29.442 5.44286 29.3566 5.43111C29.2658 5.41723 29.1771 5.42898 29.0864 5.45247C28.924 5.49519 28.8087 5.56888 28.6731 5.64897C28.6731 5.64897 28.5129 5.74829 28.4435 5.80383C28.4937 5.74936 28.5706 5.68635 28.6357 5.63402C28.6378 5.62441 28.6314 5.62334 28.6282 5.61907C28.6282 5.61907 28.6282 5.61694 28.6325 5.61373C28.782 5.45781 28.814 5.23995 28.6987 5.11286C28.577 4.97723 28.3367 4.99325 28.1626 5.15131C28.1338 5.17587 28.0921 5.22072 28.0601 5.2581C27.7835 5.54752 27.5475 5.81771 27.2644 6.10072C27.1865 6.17868 27.116 6.26091 27.0327 6.33353C26.7817 6.55353 26.5329 6.77139 26.2862 6.99139C26.1207 7.1377 25.953 7.28081 25.7875 7.42712C25.6219 7.57343 25.4553 7.7176 25.2877 7.86284C25.0378 8.08071 24.7932 8.30604 24.5444 8.5207C24.4632 8.59226 24.3778 8.66167 24.3009 8.73857C24.5048 8.58798 24.712 8.44167 24.9171 8.29109C24.5518 8.61041 24.1834 8.92759 23.8128 9.24478C23.4433 9.56089 23.0813 9.88875 22.7118 10.2049C21.9845 10.8286 21.2679 11.4736 20.5566 12.108C20.5481 12.1165 20.5331 12.1293 20.5203 12.1304C20.5139 11.6423 20.5022 10.71 20.4979 10.6662C20.4979 10.6 20.3665 10.5477 20.2063 10.5477C20.1604 10.5477 20.1166 10.552 20.0782 10.5605C20.0953 9.84283 20.1102 9.1273 20.1305 8.4107V8.40536C20.1252 8.24944 19.9383 8.12449 19.7055 8.12449C19.6937 8.12449 19.682 8.12449 19.6713 8.12556C19.6606 8.12663 19.6489 8.1277 19.6371 8.12876C19.6158 8.1309 19.5933 8.13304 19.572 8.13838C19.5517 8.14265 19.5314 8.14692 19.5122 8.15439C19.4929 8.15973 19.4748 8.16828 19.4577 8.17789C19.4406 8.18643 19.4235 8.19605 19.4086 8.20566C19.3926 8.21527 19.3787 8.22702 19.3648 8.2377C19.352 8.24944 19.3392 8.26119 19.3295 8.27401C19.3189 8.28682 19.3114 8.3007 19.305 8.31566C19.2986 8.32954 19.2943 8.34449 19.29 8.36051C19.2868 8.37653 19.2847 8.39362 19.2826 8.40964C19.2826 8.41498 19.2826 8.41925 19.2836 8.42459C19.2836 8.42886 19.2836 8.43527 19.2836 8.44061V8.45449C19.2836 8.45983 19.2836 8.46517 19.2836 8.47051C19.2836 8.47692 19.2836 8.48119 19.2836 8.4876C19.2836 8.494 19.2836 8.49934 19.2836 8.50468C19.2836 8.51109 19.2836 8.51643 19.2836 8.52284C19.2836 8.53032 19.2836 8.53566 19.2836 8.54206C19.2836 8.54847 19.2847 8.55488 19.2847 8.56235C19.2847 8.56983 19.2847 8.57624 19.2847 8.58371C19.2847 8.59119 19.2847 8.59866 19.2847 8.60614C19.2847 8.61362 19.2847 8.62216 19.2847 8.62964C19.2847 8.63818 19.2847 8.64672 19.2858 8.65527C19.2858 8.66381 19.2868 8.67342 19.2879 8.68196C19.2879 8.69158 19.2879 8.70119 19.289 8.7108C19.289 8.72041 19.289 8.73109 19.29 8.7407C19.29 8.75245 19.29 8.76206 19.2922 8.77274C19.2922 8.78449 19.2922 8.7941 19.2922 8.80585C19.2922 8.81759 19.2922 8.82827 19.2943 8.84002C19.2943 8.85177 19.2943 8.86352 19.2964 8.87633C19.2964 8.88915 19.2964 8.90089 19.2975 8.91371L19.2996 8.95323C19.2996 8.96604 19.2996 8.97992 19.3007 8.99274C19.3007 9.00662 19.3007 9.02051 19.3028 9.03439C19.3028 9.04934 19.3039 9.06216 19.305 9.07711C19.305 9.09206 19.305 9.10701 19.306 9.12089C19.306 9.13691 19.3082 9.14973 19.3082 9.16575C19.3082 9.1807 19.3093 9.19565 19.3103 9.21167L19.3135 9.25866C19.3135 9.27468 19.3146 9.2907 19.3157 9.30672C19.3157 9.3238 19.3167 9.33876 19.3178 9.35584C19.3178 9.37293 19.3199 9.38895 19.3199 9.40497C19.3199 9.42206 19.321 9.43914 19.3221 9.45516C19.3221 9.47225 19.3242 9.49041 19.3242 9.50643C19.3242 9.52458 19.3263 9.5406 19.3263 9.55769C19.3263 9.57477 19.3285 9.59186 19.3295 9.61002C19.3295 9.6271 19.3317 9.64526 19.3317 9.66341C19.3327 9.68157 19.3338 9.69973 19.3349 9.71681C19.3349 9.73497 19.336 9.75312 19.337 9.77128L19.3392 9.82574C19.3392 9.8439 19.3413 9.86312 19.3413 9.88128L19.3434 9.93681C19.3434 9.95497 19.3456 9.97419 19.3456 9.99234L19.3488 10.0479C19.3488 10.0671 19.3509 10.0853 19.3509 10.1045C19.3509 10.1237 19.353 10.1429 19.3541 10.1611L19.3562 10.2188C19.3584 10.2369 19.3584 10.2561 19.3594 10.2754C19.3594 10.2946 19.3616 10.3138 19.3626 10.333C19.3626 10.3533 19.3648 10.3715 19.3648 10.3907C19.3648 10.411 19.3669 10.4291 19.3669 10.4484C19.3669 10.4687 19.3691 10.4879 19.3691 10.5071C19.3691 10.5263 19.3712 10.5455 19.3712 10.5658C19.3712 10.584 19.3733 10.6043 19.3744 10.6235C19.3744 10.6427 19.3765 10.663 19.3776 10.6822C19.3787 10.7015 19.3797 10.7207 19.3808 10.7399C19.3808 10.7602 19.3829 10.7794 19.3829 10.7986C19.384 10.8189 19.3851 10.8382 19.3851 10.8563C19.3851 10.8755 19.3872 10.8948 19.3883 10.9151C19.3883 10.9343 19.3893 10.9535 19.3904 10.9727L19.3936 11.0304C19.3936 11.0496 19.3936 11.0678 19.3968 11.087C19.3968 11.1062 19.3968 11.1244 19.399 11.1436C19.399 11.1628 19.4011 11.181 19.4022 11.2002C19.4022 11.2184 19.4032 11.2376 19.4054 11.2557C19.4054 11.275 19.4064 11.292 19.4075 11.3113C19.4075 11.3305 19.4096 11.3476 19.4096 11.3668C19.4096 11.385 19.4107 11.4031 19.4118 11.4213C19.4128 11.4394 19.4139 11.4565 19.415 11.4747C19.416 11.4918 19.4171 11.5099 19.4171 11.5281C19.4171 11.5452 19.4192 11.5622 19.4192 11.5804C19.4192 11.5975 19.4193 11.6146 19.4214 11.6327C19.4235 11.6498 19.4235 11.6669 19.4235 11.6829C19.4235 11.7 19.4257 11.7171 19.4257 11.7331C19.4257 11.7491 19.4267 11.7662 19.4278 11.7833C19.4278 11.8004 19.4278 11.8164 19.4289 11.8335C19.4299 11.8495 19.431 11.8666 19.4321 11.8837C19.4321 11.8997 19.4331 11.9157 19.4342 11.9328C19.4342 11.9488 19.4353 11.9638 19.4363 11.9809C19.4374 11.998 19.4385 12.0129 19.4385 12.03C19.4385 12.046 19.4406 12.062 19.4417 12.0781C19.4417 12.0855 19.4417 12.093 19.4417 12.1005C19.4417 12.1037 19.4417 12.1069 19.4417 12.1112C19.4417 12.1133 19.4417 12.1154 19.4417 12.1165C19.4417 12.1186 19.4417 12.1208 19.4417 12.1218C19.3958 12.0225 19.3456 11.9253 19.3007 11.8303C19.2836 11.7951 19.2591 11.7459 19.2559 11.7118C19.2409 11.5142 19.2388 11.3145 19.227 11.1169C19.2153 10.9193 19.2057 10.7207 19.1928 10.522C19.1693 10.1258 19.1459 9.72856 19.1277 9.33128C19.0754 8.23556 18.9953 7.14945 18.9568 6.04946C18.9547 5.99926 18.9494 5.95014 18.9494 5.90208C18.9494 5.85509 18.959 5.80596 18.9643 5.75791C19.086 4.65684 19.3295 2.43764 19.3285 2.38317C19.3402 1.94531 19.116 1.58434 18.8244 1.57473C18.5318 1.56298 18.2808 1.91007 18.2616 2.34793C18.2584 2.4355 18.3566 3.98403 18.3951 4.78286C18.3972 4.84587 18.409 4.90888 18.4068 4.97082C18.3994 5.09257 18.3727 5.20684 18.362 5.32538C18.2776 4.73053 18.1815 4.13568 18.0715 3.5451C17.9647 2.97268 17.8504 2.40133 17.7244 1.83317C17.6561 1.52988 17.5482 1.24794 17.3912 0.977743C17.2406 0.720366 17.0132 0.462989 16.7056 0.402115C16.4365 0.349786 16.2154 0.440562 16.0659 0.553765C15.879 0.696871 15.7241 0.976675 15.6803 1.20522C15.6237 1.50211 15.6889 1.81609 15.7316 2.10977C15.8352 2.81462 15.8918 3.52481 15.9868 4.23073C16.0413 4.62694 16.084 5.02422 16.1332 5.4215C16.0349 5.22713 15.9431 5.02849 15.8523 4.83092C15.2115 3.43083 14.5569 2.03929 13.915 0.643473C13.8979 0.631726 13.9065 0.637065 13.9043 0.633861C13.899 0.634929 13.9043 0.633861 13.9001 0.634929C14.1777 1.25434 14.4736 1.88764 14.7427 2.52734C14.4276 1.91861 14.1404 1.28211 13.8371 0.66056C13.647 0.752404 13.474 0.818618 13.2849 0.91153C13.2999 0.909394 13.2774 0.913665 13.2935 0.91153C14.0773 2.72064 14.8826 4.52335 15.659 6.33353C15.9014 6.89955 16.1502 7.47304 16.3863 8.04119C16.4023 8.07857 16.4247 8.11168 16.4311 8.15226C15.8096 6.81304 15.1891 5.47276 14.5643 4.13782C14.5633 4.13462 14.5611 4.13568 14.5611 4.13782C15.0129 5.13208 15.4603 6.14771 15.8993 7.15052C15.9121 7.18149 15.9292 7.21353 15.9356 7.24663C15.3578 6.03023 14.7747 4.81811 14.1991 3.59957C14.1905 3.58035 14.1884 3.57394 14.1831 3.5686C14.1382 3.58462 14.1104 3.60598 14.0699 3.61452C13.7014 2.72598 12.9923 1.01939 12.9549 0.94784C12.7755 0.559105 12.4156 0.33697 12.1209 0.446969C11.8005 0.56658 11.7396 0.964927 11.7951 1.25755C11.8389 1.48502 11.9329 1.69754 12.0141 1.91113C12.1006 2.13647 12.1871 2.36181 12.2736 2.58715C12.2981 2.65123 12.3227 2.71317 12.3462 2.77725C12.3665 2.83064 12.3814 2.91715 12.4167 2.962C12.2458 2.74414 12.0311 2.63307 11.8624 2.70035C11.6499 2.78579 11.5805 3.1254 11.6851 3.49598C11.5271 3.28559 11.3252 3.17666 11.1672 3.23967C10.9482 3.32724 10.8959 3.71064 11.0497 4.09617C11.055 4.10792 11.0604 4.11966 11.0646 4.13141C11.0828 4.17093 11.0978 4.19869 11.1116 4.22966C11.2718 4.63976 11.4342 5.04878 11.5944 5.45888C11.4683 5.24636 11.3477 5.01781 11.2216 4.80102C11.196 4.75616 11.165 4.72092 11.1298 4.68568C11.0529 4.61413 10.9312 4.5885 10.819 4.64189C10.7282 4.68568 10.6567 4.77005 10.6567 4.89286C10.6567 4.95587 10.678 5.0082 10.6973 5.05946C10.7165 5.10752 10.74 5.15451 10.7603 5.20364C11.0006 5.80062 11.2473 6.35489 11.4961 6.94761C11.9863 8.11915 12.4861 9.25866 12.9923 10.4142C13.3084 11.134 13.6277 11.8559 13.946 12.565C13.9673 12.6131 13.993 12.6601 14.0058 12.7049C13.6384 11.9168 13.2721 11.1254 12.9005 10.3405C13.3618 11.401 13.8157 12.4796 14.2867 13.5305C14.3005 13.5614 14.3176 13.5924 14.323 13.6266C14.2546 13.6106 14.1916 13.586 14.1265 13.5625C14.0613 13.539 13.9951 13.523 13.9342 13.4963C13.8766 13.4696 12.5448 12.8043 12.4412 12.7498C12.0952 12.5661 7.85758 10.7538 7.68457 10.6919C7.66214 10.6833 7.64292 10.6726 7.62476 10.6652C7.12176 10.4409 6.97118 10.9471 7.02244 11.0763C6.84623 11.0122 6.66895 10.946 6.4906 10.8841C6.31118 10.8211 5.95235 10.6908 5.95235 10.6908C5.86584 10.6587 5.74517 10.7666 5.68429 10.9321C5.64905 11.0261 5.64157 11.118 5.65653 11.1852C5.43759 11.1361 5.22614 11.0774 5.01789 11.0058C4.90469 10.9653 4.79148 10.9247 4.67401 10.8905C4.55333 10.8553 4.43372 10.8232 4.3045 10.7976C4.17207 10.772 4.02469 10.7463 3.89013 10.7613C3.74809 10.7773 3.5911 10.8221 3.49392 10.9343C3.38926 11.0528 3.37217 11.2184 3.41062 11.3668C3.44906 11.5142 3.52168 11.6381 3.60712 11.763C3.63275 11.8004 3.65945 11.8367 3.69149 11.8709C3.72139 11.904 3.75343 11.936 3.78547 11.9659C3.82392 12.0022 3.8645 12.0385 3.90401 12.0727C3.94887 12.1101 3.99372 12.1464 4.04178 12.1795C4.09304 12.2137 4.14537 12.2468 4.19877 12.2778C4.25964 12.313 4.32051 12.3472 4.38246 12.3792C4.44974 12.4145 4.51809 12.4476 4.58857 12.4775C4.6644 12.5116 4.74236 12.5416 4.82032 12.5693C4.90682 12.6003 4.99546 12.6302 5.08303 12.658C5.10439 12.6654 5.12682 12.6729 5.14925 12.6793C5.05313 12.6644 4.95488 12.6494 4.86304 12.6313C4.79682 12.8619 4.69643 13.2048 4.6943 13.2144C4.6943 13.2154 4.70071 13.2176 4.70071 13.2176C4.70071 13.2176 8.75893 14.9487 10.8094 15.7935C9.6133 15.4037 8.39262 15.0416 7.19118 14.655C6.78962 14.5269 6.38701 14.4019 5.98332 14.278C5.18342 14.0335 4.33119 13.806 3.40741 13.6832C3.16926 13.6501 2.92363 13.6351 2.68334 13.617C2.5648 13.6084 2.44732 13.5903 2.32878 13.5753C2.20917 13.5604 2.09063 13.5454 1.97422 13.5315C1.91441 13.5241 1.85781 13.5209 1.80441 13.5048C1.75422 13.491 1.70403 13.4749 1.65276 13.4579C1.40714 13.3767 1.14549 13.2902 0.898789 13.2176C0.852867 13.2037 0.809081 13.1909 0.767431 13.1823C0.758887 13.1791 0.750343 13.1748 0.7418 13.1727C0.581607 13.1407 0.417142 13.2966 0.373356 13.5209C0.32957 13.7419 0.421414 13.9448 0.576267 13.9812C0.588014 13.9844 0.598694 13.9865 0.602966 13.9876C0.614713 13.9897 0.625393 13.9918 0.636072 13.9929C1.00452 14.0399 1.36442 14.0847 1.72645 14.1296C1.81403 14.1403 1.89626 14.1734 1.98169 14.199C2.23266 14.2748 2.49431 14.3507 2.73247 14.4318C2.68334 14.5408 2.65878 14.6636 2.6214 14.7832C2.59363 14.8718 2.56587 14.9605 2.53917 15.0459C2.53169 15.0737 2.52849 15.0844 2.52422 15.1014C2.79975 15.1762 3.07208 15.2606 3.3444 15.3417C5.26886 15.9174 7.19331 16.4834 9.11029 17.059C9.05796 17.2256 9.00456 17.3911 8.95116 17.5588C8.35845 17.358 7.76573 17.1455 7.16982 16.9458C6.87186 16.8454 6.57603 16.7365 6.27914 16.6382C5.66827 16.4364 5.03284 16.2036 4.43799 16.0092C4.43479 16.0071 4.37498 15.9857 4.40809 16.0017C4.43799 16.0167 4.48071 16.0284 4.51915 16.0434C5.04032 16.2281 5.54546 16.4054 6.06448 16.5934C6.32186 16.6863 6.58244 16.7771 6.82487 16.8774C6.85797 16.8913 6.89428 16.8999 6.92098 16.9255C6.67215 16.8678 6.42866 16.7931 6.18623 16.7183C5.70565 16.5709 5.22721 16.4172 4.74876 16.2719C4.50527 16.1972 4.27139 16.1139 4.03857 16.0348C3.77372 15.9451 3.51101 15.8533 3.24829 15.7625C3.12334 15.7166 2.86382 15.6279 2.57868 15.5318C2.15898 15.3855 1.735 15.2392 1.3217 15.0929C1.29286 15.0822 1.26937 15.0641 1.23947 15.0555C1.10918 15.016 0.96073 15.1335 0.908401 15.3172C0.857139 15.4955 0.914808 15.6707 1.03869 15.7144C1.06005 15.7209 1.08461 15.7273 1.08675 15.7273C1.1284 15.7369 1.15296 15.7433 1.19248 15.754C2.18567 16.0199 3.1746 16.3136 4.15285 16.5891C4.25537 16.619 4.35896 16.6468 4.45935 16.6809C4.95168 16.8539 5.45148 17.0344 5.9374 17.2064C5.6907 17.1455 5.44721 17.0804 5.20158 17.0173C5.19731 17.0173 5.19837 17.0216 5.20478 17.0206C5.5241 17.1081 5.83701 17.1936 6.14778 17.2801C6.29837 17.3206 6.44468 17.3826 6.59099 17.4349C6.7405 17.4883 6.89108 17.5374 7.03846 17.5887C7.63438 17.7991 8.22709 17.9967 8.82301 18.207C9.41679 18.4174 10.0106 18.6236 10.6086 18.8243C11.2035 19.024 11.7973 19.2355 12.3975 19.4373C10.9183 20.7787 9.43281 22.1094 8.11389 23.6034C7.86826 23.8822 7.62049 24.1748 7.39729 24.4685C7.37059 24.5037 7.35137 24.5432 7.3204 24.5678C7.25632 24.6212 7.18904 24.6671 7.12176 24.7237C7.12176 24.7237 6.79603 24.9629 6.73836 25.0484C6.67963 25.1327 6.76613 25.3121 6.93593 25.4328C7.10681 25.5535 7.29477 25.5781 7.36418 25.4916C7.36418 25.4916 7.36418 25.4916 7.36525 25.4916C7.36525 25.4916 7.36632 25.4884 7.36739 25.4873C7.36846 25.4852 7.36952 25.482 7.37059 25.4798C7.45069 25.3121 7.55214 25.1722 7.65253 25.0259C7.67923 24.9875 7.70059 24.949 7.7337 24.9191C7.76573 24.8903 7.80098 24.8636 7.83729 24.8337C7.90564 24.7792 7.97826 24.7237 8.04767 24.6682C9.97213 23.126 11.888 21.5861 13.8018 20.0332C13.8349 20.0066 13.8937 19.9532 13.9129 19.9521C13.9268 19.9521 13.9556 19.966 13.9759 19.9734C14.041 19.998 14.104 20.0183 14.1681 20.0365C13.7164 20.5384 13.2518 21.0275 12.8011 21.5295C12.6879 21.6544 12.5737 21.7783 12.4605 21.9032C12.2319 22.1553 12.0066 22.4052 11.7802 22.6561C11.667 22.7811 11.5538 22.9103 11.4555 23.047C11.4865 23.047 11.5153 22.9958 11.541 22.9883C10.7293 23.8565 9.04408 25.5321 9.04621 25.5386C9.09534 25.5823 9.12417 25.6165 9.17116 25.6614C8.77709 26.0277 8.38515 26.3972 7.98894 26.7614C8.02845 26.7987 8.06476 26.8393 8.09894 26.8799C7.94302 27.0155 7.78389 27.1501 7.62263 27.2868C7.60447 27.3017 7.55001 27.3487 7.54894 27.3487C7.46244 27.4235 7.52972 27.6446 7.69845 27.8464C7.84049 28.0151 8.00923 28.1123 8.11068 28.0963C8.11282 28.0963 8.11496 28.0984 8.11816 28.0995C7.85651 28.3644 7.51583 28.6613 7.25418 28.9346C7.22321 28.9667 7.14312 29.0446 7.13137 29.0575C7.04059 29.1579 6.99467 29.4398 7.05234 29.5925C7.06409 29.6235 7.09292 29.7004 7.13457 29.7367C6.90817 29.93 6.69885 30.0998 6.47137 30.2899C6.44895 30.3102 6.42759 30.3315 6.42011 30.339C6.36244 30.417 6.38594 30.5473 6.49167 30.6882C6.60273 30.8356 6.76186 30.9061 6.84516 30.8431C6.84729 30.8409 6.84943 30.8377 6.85157 30.8356C6.84089 30.8997 6.85904 30.9808 6.90817 31.0577C6.97758 31.1656 7.08438 31.2243 7.16234 31.2019C7.17729 31.1976 7.1837 31.1934 7.19011 31.1902C7.20399 31.1827 7.2136 31.1688 7.22321 31.156C7.97185 30.5611 8.71728 29.962 9.46165 29.3682C9.71582 29.1653 9.96572 28.9592 10.2231 28.7616C9.98494 29.097 9.76067 29.428 9.52786 29.7516C9.50543 29.7826 9.48194 29.805 9.4531 29.8328C9.35272 29.9332 9.24912 30.0336 9.1434 30.1404C8.93835 30.3443 8.72262 30.5387 8.51864 30.7427C8.3467 30.9157 8.16729 31.0855 7.99748 31.2542C7.96331 31.2874 7.90137 31.3472 7.90137 31.3472C7.73263 31.5276 7.73797 31.8128 7.9035 31.9602C7.9067 31.9634 7.91204 31.9655 7.91632 31.9687C7.92166 31.9708 7.92593 31.974 7.9302 31.9773C7.93874 31.9826 7.94729 31.989 7.9569 31.9954C7.96544 32.0007 7.97505 32.0061 7.98467 32.0114C7.99428 32.0157 8.00496 32.021 8.0135 32.0242C8.02418 32.0285 8.03379 32.0339 8.0434 32.036C8.05515 32.0392 8.06476 32.0413 8.07437 32.0435C8.08505 32.0456 8.09573 32.0477 8.10641 32.0488C8.11816 32.0509 8.12884 32.0509 8.13952 32.0509C8.1502 32.0509 8.16195 32.0509 8.17263 32.0509C8.18437 32.0509 8.19505 32.0509 8.2068 32.0499C8.21855 32.0477 8.23029 32.0467 8.24097 32.0445C8.25165 32.0445 8.2634 32.0403 8.27408 32.0381C8.28583 32.036 8.29651 32.0317 8.30826 32.0285C8.31894 32.0253 8.33068 32.021 8.34136 32.0157C8.35204 32.0114 8.36272 32.0061 8.3734 32.0007C8.38408 31.9954 8.39476 31.989 8.40437 31.9826C8.41505 31.9772 8.42573 31.9698 8.43427 31.9623C8.44495 31.9559 8.45457 31.9473 8.46418 31.9388C8.47486 31.9303 8.4834 31.9228 8.49301 31.9142C8.50476 31.9036 8.51651 31.8939 8.52719 31.8822C8.52932 31.879 8.53253 31.8747 8.53466 31.8715C8.53893 31.8651 8.54321 31.8598 8.54855 31.8534C8.55389 31.848 8.55709 31.8427 8.56243 31.8363C8.56777 31.8299 8.57311 31.8235 8.57738 31.8171C8.58272 31.8096 8.58806 31.8032 8.5934 31.7968C8.59981 31.7882 8.60621 31.7807 8.61155 31.7733C8.61796 31.7658 8.62437 31.7562 8.63078 31.7476C8.63719 31.738 8.64573 31.7284 8.65214 31.7188C8.65961 31.7092 8.66709 31.6996 8.67456 31.6878C8.68311 31.6772 8.69058 31.6654 8.69913 31.6547C8.70767 31.643 8.71621 31.6312 8.72476 31.6184C8.73437 31.6067 8.74291 31.5928 8.75359 31.581C8.76214 31.5682 8.77282 31.5543 8.78243 31.5405C8.79204 31.5266 8.80272 31.5116 8.81233 31.4977C8.82301 31.4839 8.83262 31.4689 8.84437 31.454C8.85612 31.439 8.86573 31.424 8.87641 31.4091C8.88709 31.3931 8.89883 31.3771 8.91058 31.3621C8.92233 31.3461 8.93301 31.3301 8.94476 31.313C8.9565 31.297 8.96718 31.2809 8.98 31.2639C8.99281 31.2468 9.00456 31.2308 9.01631 31.2137C9.02806 31.1976 9.04087 31.1795 9.05262 31.1624C9.06437 31.1453 9.07718 31.1272 9.09 31.1101C9.10281 31.0919 9.11563 31.0759 9.12738 31.0567C9.14019 31.0396 9.15301 31.0225 9.16582 31.0043C9.17757 30.9862 9.19145 30.9691 9.20427 30.9509C9.21708 30.9328 9.2299 30.9146 9.24272 30.8986C9.25553 30.8805 9.26835 30.8623 9.28223 30.8452C9.29504 30.8271 9.30786 30.8089 9.32068 30.7908C9.33349 30.7726 9.34524 30.7555 9.35912 30.7374C9.37194 30.7203 9.38475 30.7032 9.3965 30.685C9.40932 30.6679 9.42106 30.6498 9.43388 30.6316C9.44669 30.6145 9.45844 30.5975 9.47019 30.5804C9.48194 30.5643 9.49475 30.5473 9.5065 30.5302C9.51718 30.5142 9.52999 30.4971 9.54174 30.481C9.55242 30.4661 9.56417 30.4501 9.57592 30.433C9.5866 30.417 9.59834 30.4009 9.61009 30.3849C9.62077 30.37 9.63145 30.355 9.64213 30.339C9.65281 30.3251 9.66349 30.3091 9.67524 30.2942C9.68592 30.2792 9.69553 30.2643 9.70621 30.2504C9.71689 30.2354 9.7265 30.2205 9.73825 30.2066C9.74786 30.1916 9.75747 30.1777 9.76815 30.1649C9.84931 30.0485 9.92834 29.9257 10.0266 29.836C10.128 29.742 10.2242 29.6427 10.3224 29.5434C10.6172 29.2497 10.9237 28.9646 11.2174 28.6709C11.5121 28.3761 11.8186 28.091 12.1112 27.7994C12.2084 27.7012 12.312 27.6082 12.4103 27.51C12.6068 27.3146 12.8129 27.1266 13.0083 26.9312C13.1066 26.8318 13.2102 26.74 13.3073 26.6418C13.5039 26.4463 13.7057 26.2552 13.9065 26.0651C14.2087 25.7788 14.5013 25.4809 14.8078 25.2021C14.858 25.1552 14.9071 25.106 14.9552 25.0569C15.1036 24.9085 15.2585 24.7686 15.4059 24.6212C15.5052 24.5229 15.6002 24.4247 15.7006 24.3296C15.7508 24.2826 15.8096 24.2442 15.864 24.2004C16.1876 23.9356 16.5166 23.6675 16.8359 23.4058C17.2161 23.094 17.5995 22.7896 17.9775 22.481C15.3151 25.2235 12.6559 27.9724 10.017 30.7374C10.0063 30.7502 9.99562 30.7619 9.98281 30.7715C9.98067 30.7801 9.97106 30.7801 9.96786 30.7897C9.9764 30.7865 9.97747 30.7779 9.98708 30.7747C10.7336 30.0485 11.4715 29.3127 12.2074 28.5769C12.6676 28.1155 13.1247 27.6467 13.5829 27.1907C13.8605 26.913 14.1297 26.6321 14.4063 26.3555C14.7747 25.9871 15.1325 25.608 15.4999 25.2395C16.2378 24.5016 16.9598 23.7508 17.6956 23.0139C18.0523 22.6572 18.3962 22.3133 18.7496 21.9588C18.7582 21.9513 18.7892 21.9257 18.8041 21.9171C18.8223 21.9769 18.8618 22.0143 18.8778 22.0677C18.8927 22.1179 18.897 22.1788 18.9066 22.2354C18.9323 22.3721 18.9568 22.5077 18.9814 22.6455C19.1192 23.8544 19.3189 25.5941 19.3392 25.734C19.4054 26.206 19.4748 26.6759 19.5431 27.1458C19.6991 28.2202 20.4594 32.5144 20.5972 32.8103C20.6645 32.9555 20.7948 33.0965 20.9635 33.1125C21.1301 33.1285 21.3223 32.9576 21.3437 32.7889C21.3715 32.5732 21.286 32.3574 21.286 32.1417C21.286 31.6024 21.286 31.0631 21.285 30.5238C21.2839 30.3572 21.286 30.1906 21.2807 30.025C21.2722 29.7249 21.2572 29.4248 21.2348 29.1258C21.1878 28.5224 21.0938 27.9286 21.0169 27.3284C20.9977 27.1779 20.9123 26.2156 20.908 26.0789C21.8574 27.9382 23.7541 31.6601 23.7541 31.6601C23.7979 31.7241 23.957 31.7199 24.1236 31.6494C24.2998 31.5736 24.4162 31.4529 24.3842 31.3781C24.3842 31.3781 24.3831 31.376 24.382 31.376C23.6249 29.4943 22.8719 27.6082 22.1009 25.7415C22.605 26.4004 23.1069 27.0817 23.6056 27.7588C23.6387 27.8037 23.6697 27.8421 23.6985 27.8848C23.7284 27.9297 23.7423 27.9842 23.7648 28.0408C24.0627 28.768 24.3991 29.4836 24.7216 30.1617C24.3212 29.4665 23.9687 28.7221 23.6387 27.9553C23.6377 27.9532 23.6345 27.9532 23.6355 27.9585C23.8406 28.4776 24.0392 28.9998 24.2635 29.5039C24.4867 30.0058 24.7398 30.4853 25.0185 30.9274C25.151 31.1389 25.293 31.361 25.4617 31.5704C25.5792 31.7167 25.7234 31.8619 25.8654 31.9847C26 32.1022 26.2477 32.209 26.4816 32.1481C26.6151 32.1129 26.7144 32.0339 26.7956 31.9185C26.8736 31.8096 26.9216 31.6643 26.9099 31.4977C26.8992 31.3333 26.8661 31.1912 26.8106 31.0503C26.9611 30.9819 27.1171 30.9104 27.2623 30.842C27.2826 30.8335 27.3093 30.8292 27.3253 30.81C27.0252 30.1767 26.7123 29.5445 26.4165 28.9069C26.1196 28.2704 25.8045 27.6403 25.5066 27.0038C25.2097 26.3662 24.8989 25.7351 24.5978 25.1007C24.2966 24.4663 23.9741 23.8437 23.6772 23.2125C23.7925 23.2563 23.9196 23.2873 24.0317 23.3343C25.371 26.1014 26.7144 28.862 28.0932 31.5907C28.0964 31.5981 28.106 31.5981 28.0964 31.5907C26.8234 28.8599 25.5322 26.1259 24.2603 23.4048C25.6999 23.8779 27.148 24.3446 28.5962 24.8102C28.6026 24.8102 28.6047 24.8059 28.5962 24.807C27.8668 24.5411 27.1299 24.2912 26.3973 24.0306C25.6636 23.769 24.9299 23.5105 24.1909 23.2585C24.1909 23.2542 24.1866 23.2521 24.1834 23.251C24.1086 23.078 24.0157 22.9039 23.9463 22.7362C24.5935 22.9466 25.2599 23.1549 25.9135 23.3578C26.0064 23.3866 26.1004 23.4187 26.1933 23.4454C27.1416 23.7305 28.091 24.0253 29.0501 24.2848C29.2402 24.336 29.4249 24.4044 29.6118 24.4621C29.9856 24.5774 30.3551 24.7055 30.7235 24.8273C31.0941 24.9512 31.4615 25.0761 31.8214 25.2096C32.0937 25.3089 32.3682 25.4029 32.632 25.5161C32.7142 25.5642 32.8221 25.6229 32.8221 25.6229C32.8392 25.6283 32.8584 25.6283 32.8765 25.6283H32.8787C33.0752 25.6186 33.3272 25.278 33.4682 24.8188C33.622 24.3125 33.5793 23.8224 33.3785 23.7604C33.3785 23.7604 33.2631 23.7423 33.2535 23.738C33.2995 23.5158 33.2781 23.3407 33.1467 23.3023C33.1339 23.2991 30.0529 22.3101 28.5513 21.8338C28.3345 21.7655 28.1156 21.7003 27.8977 21.6309C27.0466 21.3629 26.1933 21.0969 25.3379 20.8321C25.4329 20.8299 25.5258 20.8289 25.6219 20.8267C25.7885 20.8801 26.9814 21.2593 27.3467 21.3746C27.9618 21.57 28.562 21.7505 29.1654 21.9449C29.7432 22.1307 30.9147 22.5109 30.9233 22.513C30.9233 22.513 30.9446 22.5184 30.9649 22.5077C31.0108 22.4842 31.0674 22.4201 31.0941 22.3315C31.124 22.2343 31.1187 22.1403 31.0952 22.0997C31.0952 22.0997 31.0877 22.0805 31.0653 22.0741C31.0482 22.0698 31.0397 22.0677 31.0279 22.0634C30.8613 22.0058 30.6968 21.9449 30.5324 21.8904C29.9589 21.695 29.3897 21.506 28.8215 21.3063C28.4424 21.1738 28.0633 21.0446 27.6831 20.9186C27.5485 20.8737 27.414 20.8267 27.2783 20.7797C31.0247 20.6495 35.0178 20.36 33.4863 20.1037M8.7835 17.9454C8.56243 17.8931 8.34991 17.814 8.14379 17.7468C8.20146 17.7532 8.25593 17.7767 8.31466 17.7948C8.42893 17.8279 8.54427 17.8621 8.66175 17.8963C8.71728 17.9134 8.77709 17.9251 8.82408 17.9497C8.81874 17.9614 8.79845 17.9497 8.7835 17.9454ZM18.473 9.95176C18.4837 9.86419 18.4923 9.7638 18.5029 9.67409C18.519 9.5438 18.5382 9.41778 18.5478 9.29817C18.6012 9.62924 18.6418 9.96992 18.6994 10.2988C18.7165 10.395 18.7347 10.5124 18.7368 10.6278C18.6567 10.4633 18.5766 10.2914 18.4955 10.1184C18.4848 10.0927 18.4656 10.065 18.4634 10.0436C18.4592 10.019 18.4698 9.98487 18.4741 9.95176M18.3705 10.7944C18.378 10.7292 18.3919 10.6331 18.4015 10.569C18.5115 10.788 18.6215 11.0229 18.7304 11.2515C18.7454 11.2846 18.771 11.3145 18.7785 11.3444C18.787 11.3785 18.7828 11.4213 18.786 11.4597C18.7934 11.5697 18.7998 11.6829 18.8041 11.8036C18.6717 11.5238 18.5286 11.2194 18.3908 10.9268C18.3673 10.8787 18.3641 10.8617 18.3716 10.7944M18.2199 7.29469C18.1996 7.49013 18.1751 7.69624 18.1537 7.89381C18.1217 8.18109 18.0939 8.4641 18.0651 8.73643C18.1313 8.2409 18.19 7.73789 18.2616 7.24663C18.2851 7.33955 18.2627 7.46022 18.253 7.56809C18.2061 8.12022 18.1398 8.68837 18.0864 9.23516C18.0597 9.18284 18.033 9.1305 18.0053 9.07284C17.9967 9.05468 17.985 9.03225 17.9829 9.0173C17.9775 8.98313 17.9914 8.93614 17.9978 8.89128C18.0704 8.27187 18.1505 7.61721 18.2231 7.01382C18.2509 7.09285 18.2285 7.19751 18.2189 7.29469M17.1285 8.22168C17.1135 8.08711 17.0932 7.95682 17.0772 7.82333C17.3399 8.35944 17.5952 8.90196 17.8568 9.43808C17.8451 9.52672 17.8333 9.61642 17.8237 9.70827C17.5888 9.21701 17.3624 8.71614 17.1285 8.22274M17.7725 10.1258C17.7629 10.1728 17.7575 10.2209 17.7543 10.2743C17.5909 9.91759 17.4414 9.55769 17.2812 9.19138C17.2695 9.16788 17.2534 9.14439 17.2481 9.12196C17.2331 9.06643 17.2385 9.00449 17.2257 8.95536C17.4104 9.34303 17.5877 9.74031 17.7725 10.1269M16.8743 8.19391C16.9427 8.33274 17.0046 8.48012 17.073 8.61895C17.0751 8.66167 17.0847 8.69692 17.0847 8.7407C17.0142 8.59119 16.9512 8.43206 16.8807 8.28255C16.8829 8.24838 16.8722 8.22702 16.8743 8.19391ZM16.963 7.57663C16.9726 7.70051 16.9886 7.81692 17.0003 7.93867C16.9256 7.79022 16.8594 7.63323 16.7846 7.48479C16.7739 7.36411 16.7558 7.24877 16.744 7.12916C16.8199 7.27547 16.885 7.43139 16.9619 7.57663M16.6693 6.51722C16.6597 6.39975 16.6426 6.29188 16.633 6.17654C16.7131 6.33887 16.7835 6.50975 16.8615 6.67528C16.8722 6.76712 16.8829 6.85897 16.8914 6.95295C16.8145 6.81091 16.7472 6.65926 16.6703 6.51722M16.9544 6.88567C17.1178 7.24557 17.2833 7.6044 17.4307 7.98032C17.42 7.99313 17.4179 7.97178 17.4158 7.96964C17.3773 7.92051 17.3474 7.84789 17.3154 7.78809C17.2235 7.61615 17.1349 7.43993 17.042 7.25731C17.0249 7.22207 16.9971 7.18683 16.9865 7.15265C16.9747 7.11634 16.9768 7.06615 16.9715 7.02343C16.9662 6.97431 16.9555 6.93266 16.9533 6.88673M17.8291 10.2647C17.8664 10.3298 17.8942 10.4046 17.9295 10.4708C17.9273 10.5317 17.9156 10.5829 17.9113 10.6406C17.8771 10.5722 17.8483 10.4964 17.8152 10.4259C17.8152 10.3661 17.828 10.3213 17.8291 10.2636M17.907 9.89409C17.8985 9.87701 17.8835 9.85778 17.8803 9.84176C17.8771 9.81186 17.891 9.74671 17.8953 9.70934C17.9017 9.65807 17.9081 9.60895 17.9145 9.56837C17.9529 9.63351 17.9807 9.70934 18.0181 9.77555C18.0063 9.86633 17.9925 9.95603 17.985 10.0522C17.954 10.0062 17.9327 9.94856 17.907 9.89302M13.4547 0.965995C13.4473 0.949976 13.4376 0.920073 13.4291 0.899782C13.4206 0.879491 13.4067 0.861336 13.4398 0.851724C13.4526 0.849588 13.4558 0.868811 13.4579 0.874151C13.49 0.944636 13.5199 1.02153 13.5508 1.09629C13.7933 1.68366 14.0442 2.29026 14.2856 2.88511C14.009 2.25715 13.7345 1.60463 13.4537 0.967063M14.3475 2.10871C14.245 1.88444 14.1436 1.65055 14.0336 1.41133C13.9513 1.23192 13.8499 1.00017 13.7591 0.80153C13.7559 0.790851 13.7463 0.77056 13.7409 0.757744C13.7249 0.715026 13.7228 0.726773 13.7559 0.71289C13.7783 0.734249 13.7837 0.767356 13.7965 0.794055C14.0848 1.41881 14.3838 2.05424 14.6754 2.68327C15.0823 3.55578 15.4924 4.42403 15.9025 5.30723C15.9879 5.48985 16.0798 5.68849 16.1727 5.87965C16.1866 5.90742 16.2068 5.93519 16.2133 5.95761C16.2197 5.98111 16.2175 6.01208 16.2207 6.03878C16.2293 6.1114 16.2421 6.19897 16.2506 6.2748C15.6088 4.90141 14.984 3.50452 14.3475 2.10977M16.3329 2.98229C16.3489 3.02288 16.3521 3.07627 16.3585 3.12647C16.3564 3.02074 16.3371 2.91608 16.3243 2.80928C16.2752 2.3789 16.2261 1.96133 16.1844 1.52347C16.1705 1.37929 16.1748 1.21376 16.257 1.08881C16.3233 0.988422 16.4599 0.888035 16.5828 0.892306C16.807 0.901918 16.9929 1.18386 17.0644 1.36434C17.1093 1.47327 17.1552 1.59288 17.1915 1.71036C17.2257 1.82783 17.2545 1.94531 17.2898 2.06278C17.4371 2.54657 17.5535 3.0453 17.6593 3.55578C17.7661 4.06306 17.8643 4.59811 17.9519 5.12995C18.0298 5.60305 18.1003 6.05159 18.1772 6.53431C18.1879 6.60159 18.2061 6.67421 18.2061 6.73829C18.2071 6.78101 18.1964 6.828 18.1922 6.87392C18.1163 7.53178 18.0224 8.23663 17.9444 8.88808C17.6432 8.25158 17.3314 7.57877 17.0249 6.92518C17.0035 6.88139 16.9768 6.83761 16.9651 6.79596C16.9469 6.73188 16.9459 6.65392 16.9363 6.5813C16.8679 6.0815 16.8081 5.58703 16.7408 5.08403C16.6607 4.49131 16.5881 3.91675 16.5123 3.3219C16.5166 3.45753 16.5411 3.59316 16.5561 3.72772C16.6682 4.68034 16.7697 5.64257 16.8775 6.60373C16.8113 6.46916 16.744 6.32392 16.6778 6.18295C16.6693 6.16266 16.6532 6.1413 16.649 6.12315C16.6415 6.09645 16.6426 6.058 16.6383 6.02383C16.5828 5.54432 16.5347 5.03704 16.4856 4.55646C16.4322 4.02141 16.3745 3.50239 16.335 2.98229M14.9488 6.83761C14.9776 6.89314 15.0182 6.99673 15.0406 7.05227C15.5618 8.30498 16.0755 9.55876 16.6041 10.8104C16.6725 10.9717 16.744 11.1479 16.8156 11.3166C16.8252 11.3401 16.8391 11.3657 16.8455 11.386C16.8572 11.4362 16.8519 11.4789 16.8604 11.5377C16.2218 9.96778 15.5938 8.42993 14.9648 6.88139C14.9605 6.86858 14.9563 6.86217 14.9499 6.84508C14.9467 6.83654 14.937 6.81411 14.9499 6.83761M15.8106 19.2697C15.8683 19.2109 15.9281 19.1436 15.9879 19.0849C16.0338 19.0999 16.083 19.1127 16.1289 19.1298C16.1396 19.134 16.1182 19.1511 16.1107 19.1597C16.0434 19.228 15.9612 19.3081 15.8886 19.3733C15.848 19.3572 15.8053 19.3412 15.7594 19.3295C15.7636 19.307 15.7914 19.29 15.8106 19.2707M15.6814 19.2665C15.6739 19.275 15.6643 19.2921 15.6526 19.29C15.6387 19.2825 15.6622 19.2729 15.6707 19.2633C15.7305 19.1981 15.8042 19.1191 15.8704 19.0561C15.8213 19.1095 15.7455 19.1992 15.6814 19.2665ZM14.9424 6.81625C14.9328 6.81732 14.9264 6.78314 14.92 6.76819C14.9168 6.76819 14.9178 6.76392 14.9168 6.76071C14.9306 6.7746 14.9328 6.80023 14.9424 6.81625ZM14.9093 6.74256C14.9093 6.74256 14.9146 6.74897 14.9168 6.75324C14.9146 6.76285 14.9093 6.7479 14.9093 6.74256ZM14.9093 6.73508C14.9082 6.7447 14.9018 6.72868 14.9018 6.7244C14.905 6.72761 14.9071 6.73188 14.9093 6.73508ZM14.8911 6.69023C14.8901 6.69984 14.8826 6.68489 14.8836 6.67955C14.8879 6.68169 14.889 6.68596 14.8911 6.69023ZM14.8762 6.66033C14.8762 6.66033 14.8815 6.6678 14.8826 6.67101C14.8815 6.68062 14.8751 6.66567 14.8762 6.66033ZM14.8762 6.65285C14.874 6.66246 14.8676 6.64644 14.8687 6.64217C14.8719 6.64431 14.874 6.64858 14.8762 6.65285ZM14.8569 6.60907C14.8559 6.61761 14.8495 6.60266 14.8495 6.59839C14.8537 6.60159 14.8548 6.60479 14.8569 6.60907ZM14.8655 6.62615C14.8644 6.63576 14.8569 6.62081 14.8569 6.61547C14.8612 6.61868 14.8634 6.62188 14.8655 6.62615ZM15.2756 10.3255C15.4881 10.773 15.6494 11.2451 15.8437 11.7118C15.7401 11.4939 15.6195 11.2814 15.5191 11.0571C15.4176 10.8307 15.329 10.5968 15.2307 10.3661C15.0374 9.90691 14.8484 9.44235 14.6583 8.98313C14.8698 9.4274 15.0631 9.87914 15.2756 10.3255ZM14.7544 10.7324C14.8698 10.9663 14.9669 11.2087 15.0727 11.4501C15.1763 11.6893 15.2799 11.9296 15.3835 12.171C14.999 11.5334 14.6252 10.867 14.2557 10.2049C14.1938 10.0938 14.1329 9.98273 14.0709 9.87167C14.0079 9.7606 13.9577 9.63992 13.9075 9.52031C13.5039 8.55595 13.1002 7.58838 12.7061 6.59732C12.7061 6.58237 12.7242 6.61761 12.7285 6.62615C12.9507 7.06722 13.1717 7.51896 13.3939 7.96003C13.6256 8.42032 13.8424 8.88808 14.0741 9.34623C14.3038 9.80438 14.5259 10.2689 14.7544 10.7324ZM12.4786 1.22551C12.6185 1.56085 12.752 1.91113 12.893 2.24754C12.9133 2.29667 12.9272 2.349 12.9592 2.39278C12.8257 1.98696 12.6783 1.59609 12.5309 1.20522L12.5512 1.19667C12.9346 2.05424 13.3095 2.92142 13.679 3.79287C13.6192 3.81743 13.5605 3.842 13.5049 3.86976C13.3607 3.54083 13.2273 3.21831 13.0874 2.89045C13.0404 2.78152 12.9998 2.66831 12.9539 2.55831C12.8641 2.33725 12.7627 2.13007 12.6655 1.91541C12.5737 1.71036 12.4861 1.49036 12.4669 1.22764L12.4765 1.22444L12.4786 1.22551ZM12.328 1.28104L12.3409 1.27677C12.6837 2.09696 13.035 2.91608 13.3853 3.74054C13.396 3.76724 13.4238 3.82384 13.4366 3.86656C13.4366 3.86442 13.4483 3.88685 13.4483 3.88471C13.4483 3.9018 13.443 3.89433 13.4334 3.89967C13.4163 3.90928 13.4141 3.89967 13.4045 3.88151C13.3853 3.84306 13.3672 3.78005 13.3565 3.75336C13.0243 2.92249 12.6687 2.1023 12.3291 1.28211M11.6862 6.278C11.7054 6.29402 11.7108 6.31965 11.7225 6.33994C11.8069 6.49693 11.9019 6.65499 11.9735 6.828C12.0568 7.02557 12.139 7.22955 12.2138 7.43353C12.029 7.05761 11.8624 6.66246 11.6862 6.278ZM12.0141 6.89101C12.0141 6.87605 12.0162 6.89101 12.0215 6.89101C12.2437 7.30324 12.469 7.72721 12.6943 8.14372C12.7317 8.2142 12.7744 8.28148 12.8054 8.35517C13.522 10.0799 14.2439 11.8324 15.0225 13.5027C15.0866 13.6405 15.156 13.7708 15.2158 13.9139C15.2158 13.916 15.2329 13.9288 15.219 13.932C15.2008 13.9235 15.1805 13.916 15.1602 13.9107C14.0773 11.605 13.0361 9.25866 12.0151 6.89207M12.5875 14.6646C12.7072 14.7095 12.83 14.7661 12.9507 14.8227C13.647 15.1495 14.3625 15.471 15.0663 15.7945L14.4607 16.1865C14.3903 16.1534 14.3187 16.1224 14.2504 16.0872C14.0101 15.9665 13.7495 15.8575 13.4953 15.7508C13.3255 15.6792 13.1568 15.6012 12.9891 15.5286C12.4861 15.3097 11.982 15.0715 11.5175 14.8152C11.3957 14.8355 11.2793 14.8035 11.1746 14.7672C10.8778 14.6646 10.6065 14.513 10.347 14.3752C10.3246 14.3645 10.3021 14.3507 10.2808 14.3389C10.0415 14.2097 9.79378 14.0837 9.54495 13.9587C9.45203 13.9128 9.36126 13.8679 9.2598 13.8295C9.2598 13.8252 9.26087 13.8252 9.26301 13.8252C10.269 14.0324 11.2537 14.2631 12.2052 14.5269C12.3344 14.5643 12.4605 14.6166 12.5854 14.6646M14.874 16.823C14.7843 16.7984 14.6989 16.7578 14.6113 16.7215C14.543 16.6959 14.4714 16.6692 14.4009 16.6425C14.4148 16.6361 14.4298 16.6297 14.4437 16.6222C14.5942 16.6809 14.7395 16.7461 14.873 16.823M10.1612 12.9538C10.1911 12.957 10.2284 12.9773 10.2605 12.9901C10.2947 13.004 10.3342 13.0136 10.3609 13.0275C10.3801 13.0382 10.4025 13.0627 10.4239 13.0798C10.4826 13.1289 10.552 13.1887 10.6086 13.2347C10.41 13.1556 10.2039 13.0531 9.99883 12.9677C10.0565 12.9655 10.111 12.9484 10.1612 12.9538ZM8.30612 12.6953C8.47379 12.7744 8.64359 12.8534 8.81233 12.9282C9.31747 13.1514 9.81407 13.397 10.3246 13.6234C9.49048 13.4493 8.63398 13.2945 7.77428 13.1311C7.71661 13.1204 7.65574 13.115 7.60768 13.098C7.58418 13.0894 7.56176 13.0702 7.53719 13.0542L9.3132 13.193C9.3132 13.193 8.37126 12.7455 7.28409 12.3013C7.36525 12.3258 7.44642 12.3504 7.52545 12.3739C7.62263 12.4016 7.71981 12.4177 7.80632 12.4583C7.97292 12.5373 8.13418 12.6163 8.30505 12.6953M6.36138 11.2579C6.81739 11.4191 7.27768 11.5793 7.72088 11.7342C7.66321 11.7246 7.59913 11.7085 7.53292 11.6893C7.34816 11.6381 7.157 11.5825 6.97438 11.5259C6.98933 11.5174 6.97224 11.5259 6.9936 11.5249C6.91885 11.5067 6.89322 11.4939 6.81953 11.4821C6.74584 11.4704 6.66788 11.4651 6.59739 11.4448C6.53759 11.4277 6.48099 11.3914 6.42011 11.3636C6.39021 11.3497 6.3571 11.3401 6.3272 11.3262C6.24283 11.2867 6.15953 11.2451 6.06555 11.2045C5.99934 11.1756 5.92458 11.1553 5.884 11.1116C6.0474 11.1233 6.22361 11.2066 6.36031 11.2557M9.23524 14.5845C9.38369 14.6689 9.54922 14.7597 9.70087 14.8441C9.39009 14.7138 9.08039 14.5792 8.76961 14.4446C7.83836 14.041 6.89535 13.6447 5.95448 13.2517C6.01536 13.2507 6.07516 13.2678 6.13497 13.2774C6.13497 13.2774 6.13817 13.2774 6.13924 13.2774L6.78642 13.4173C6.89428 13.4728 7.01603 13.5305 7.13671 13.5657C7.22749 13.5913 7.32894 13.5978 7.43253 13.5978C7.52331 13.5978 7.62049 13.602 7.69845 13.6277L8.42146 14.1189L8.50049 14.152L10.0672 14.8099L11.7919 15.6034C10.9215 15.2499 10.0405 14.9049 9.1765 14.545C9.19359 14.5611 9.21388 14.5739 9.23524 14.5845ZM10.3032 17.4157C10.3662 17.4253 10.4271 17.4488 10.4879 17.467C10.6716 17.5225 10.8617 17.5791 11.0497 17.6336C11.0422 17.641 11.0401 17.6357 11.0315 17.6336C10.9077 17.6069 10.7816 17.5673 10.6578 17.5342C10.5328 17.5001 10.4164 17.4552 10.3021 17.4157M10.6941 17.5524C11.6552 17.8311 12.6185 18.1045 13.5775 18.3833C13.5904 18.3875 13.5722 18.4014 13.5701 18.4025C13.5306 18.4399 13.4729 18.4858 13.4291 18.52C12.5192 18.1985 11.6029 17.8835 10.6983 17.5556C10.6919 17.5556 10.6909 17.5513 10.6941 17.5513M11.667 18.9375C11.9991 19.0272 12.327 19.1223 12.6612 19.2109C12.6463 19.2334 12.6271 19.2483 12.6057 19.2622C12.3003 19.1533 11.966 19.0475 11.667 18.9375ZM13.3041 19.7513C12.1732 20.6623 11.0433 21.5754 9.91553 22.4885C9.90805 22.4938 9.90698 22.4938 9.91126 22.4863C10.2829 22.1254 10.6492 21.758 11.0347 21.4066C11.0978 21.349 11.1544 21.2849 11.2195 21.2262C11.2836 21.1674 11.3466 21.1087 11.4043 21.0457C11.6392 20.7904 11.8955 20.5576 12.139 20.3131C12.3227 20.1304 12.5149 19.9564 12.7008 19.7737C12.7627 19.7129 12.8268 19.6552 12.893 19.5997C13.0297 19.6467 13.1685 19.6926 13.3031 19.7406C13.318 19.7406 13.3031 19.746 13.3031 19.7513M13.5135 19.573C13.3714 19.5228 13.2262 19.4736 13.0809 19.4256C13.0852 19.3967 13.1322 19.3807 13.1482 19.3508C13.3116 19.3925 13.4675 19.4405 13.6277 19.4833C13.5904 19.5142 13.5573 19.5473 13.5135 19.5719M13.2102 17.2256C11.935 16.8208 10.646 16.4246 9.38475 16.0135C11.0839 16.5346 12.799 17.0387 14.481 17.577C14.4607 17.6047 14.4404 17.6069 14.4116 17.5983C14.3347 17.5791 14.2504 17.5481 14.1713 17.5246C13.8531 17.4285 13.5252 17.3249 13.2102 17.2256ZM13.8872 18.678C13.8872 18.6609 13.9075 18.6492 13.9204 18.6374C13.9577 18.6033 14.0037 18.5627 14.0421 18.5253C14.0421 18.5221 14.0496 18.5232 14.0496 18.5189C14.2418 18.5702 14.4298 18.6257 14.6188 18.6812C14.5483 18.74 14.4768 18.7976 14.4041 18.8553C14.2301 18.7966 14.0603 18.7346 13.8872 18.678ZM14.1307 19.7833C14.1767 19.7406 14.2258 19.7022 14.2749 19.6637C14.3422 19.684 14.4084 19.7043 14.4746 19.7235C14.4383 19.7716 14.3956 19.8154 14.3529 19.857C14.2781 19.8335 14.2066 19.8047 14.1307 19.7833ZM7.47845 30.0827C7.8234 29.7869 8.1801 29.4911 8.52825 29.192C9.71902 28.1732 10.9002 27.1287 12.0867 26.1035C11.997 26.2445 11.8912 26.3876 11.7909 26.5318C11.777 26.552 11.7652 26.5777 11.7503 26.5948C11.7289 26.6183 11.6937 26.6407 11.6659 26.6652C11.2505 27.0081 10.8244 27.3722 10.4132 27.715C10.4783 27.6745 10.5403 27.6296 10.6012 27.5858C10.3427 27.8144 10.0757 28.0376 9.80339 28.2544C8.98641 28.9069 8.15661 29.5562 7.33535 30.2098C7.37593 30.1607 7.43147 30.1254 7.47952 30.0838M8.01136 29.7847C7.65787 30.0806 7.29797 30.3881 6.94448 30.6904C6.9338 30.6989 6.92312 30.7085 6.91244 30.7181C6.91244 30.6978 6.90924 30.6776 6.9039 30.6562C6.91564 30.6423 6.92632 30.6284 6.93914 30.6167C6.96477 30.5932 6.99467 30.5825 7.02457 30.5643C7.04914 30.5505 7.0705 30.5248 7.09506 30.5056C7.44748 30.2215 7.82234 29.9332 8.17049 29.6448C8.12243 29.695 8.06583 29.7399 8.01136 29.7847ZM8.18864 29.6342C8.19612 29.6278 8.16195 29.6523 8.18864 29.6342ZM10.5243 27.8848C10.2348 28.1337 9.93582 28.3782 9.63679 28.6249C9.24058 28.9507 8.84116 29.2796 8.43961 29.5968C8.4834 29.5519 8.53466 29.5135 8.58379 29.475C8.7333 29.3544 8.88495 29.2347 9.03019 29.1087C9.22349 28.9411 9.41786 28.7734 9.61116 28.6057C9.80446 28.437 9.99135 28.2608 10.1953 28.1038C10.3982 27.9457 10.599 27.7855 10.8083 27.6328C10.725 27.7289 10.6204 27.8026 10.5243 27.8848ZM10.4986 27.8325C10.5093 27.8133 10.5349 27.793 10.5542 27.7781C10.6919 27.6574 10.8297 27.5282 10.9792 27.4128C11.1266 27.2964 11.274 27.1789 11.4181 27.0604C11.4149 27.0946 11.3765 27.1127 11.3444 27.1383C11.0668 27.3648 10.772 27.605 10.4986 27.8325ZM11.3007 28.0504C11.3551 27.9649 11.416 27.8827 11.4779 27.7951C11.4972 27.7674 11.5153 27.7332 11.5367 27.7097C11.558 27.6883 11.5879 27.6713 11.6146 27.651C11.7844 27.5164 11.9639 27.368 12.1315 27.2302C11.8688 27.5025 11.5751 27.7748 11.3007 28.0504ZM11.9179 23.1538C11.8955 23.173 11.8528 23.2222 11.8443 23.2232C11.8389 23.2254 11.8795 23.1848 11.8848 23.1794C11.9874 23.0673 12.1006 22.9552 12.1999 22.8462C12.2586 22.7811 12.3259 22.7245 12.3846 22.6615C12.6185 22.4073 12.8695 22.1628 13.1087 21.9075C13.4024 21.5935 13.7153 21.2796 14.0143 20.9688C14.0752 20.9068 14.1371 20.8449 14.1959 20.7808C14.2546 20.7167 14.3176 20.6569 14.3774 20.5929C14.4661 20.4978 14.5569 20.4049 14.6508 20.312C14.6807 20.2821 14.7032 20.2436 14.7427 20.2233C14.7555 20.2298 14.7704 20.2362 14.7875 20.2383C14.6199 20.4359 14.4383 20.6238 14.2664 20.8193C14.4575 20.6334 14.638 20.4369 14.8313 20.2543C14.873 20.2714 14.9178 20.2853 14.9637 20.2981C14.7769 20.5021 14.575 20.6911 14.3871 20.8972C14.3742 20.9122 14.3604 20.9261 14.3465 20.9421C14.3347 20.956 14.3262 20.9752 14.3134 20.9891C14.2909 21.0136 14.261 21.0371 14.2365 21.0596C13.4611 21.7548 12.689 22.4468 11.919 23.1559M15.2521 18.898C15.2008 18.9589 15.1261 19.0262 15.0705 19.0849C15.0481 19.0828 15.031 19.0732 15.0118 19.0668C15.0908 18.9963 15.1763 18.9343 15.2553 18.8649C15.2574 18.8649 15.2596 18.867 15.2628 18.867C15.2756 18.8756 15.2564 18.8916 15.2521 18.8969M15.2852 19.9692C15.2852 19.9863 15.267 19.9991 15.2553 20.0098C15.219 20.0461 15.1752 20.0877 15.1368 20.124C15.0908 20.1123 15.047 20.0973 15.0075 20.0792C14.9936 20.076 15.015 20.0664 15.0161 20.0653C15.0524 20.0236 15.1026 19.9724 15.1421 19.9329C15.1976 19.9371 15.2339 19.9617 15.2863 19.9692M15.046 19.8987C15.0599 19.9019 15.0716 19.9062 15.0866 19.9094C15.0449 19.9628 14.9979 20.013 14.9499 20.061C14.9349 20.0578 14.9264 20.0503 14.9103 20.0503C14.9082 20.0332 14.9296 20.0236 14.9392 20.013C14.9734 19.9788 15.0107 19.9339 15.047 19.8987M13.7239 24.932C13.6886 24.9736 13.6416 25.0067 13.5978 25.043C13.4697 25.1509 13.3351 25.2652 13.2059 25.3752C13.2283 25.3314 13.2625 25.2908 13.2945 25.247C13.3052 25.2321 13.3138 25.2139 13.3244 25.2032C13.3501 25.1776 13.3917 25.1541 13.4248 25.1317C13.522 25.0665 13.6309 25.0014 13.7239 24.933M15.2724 23.9131C14.4896 24.5261 13.7025 25.1573 12.9175 25.7746C12.9741 25.6934 13.0265 25.6144 13.1023 25.5492C13.3586 25.3271 13.6224 25.0986 13.8787 24.8722C13.9727 24.7889 14.0624 24.7055 14.1671 24.6361C14.59 24.3574 15.0086 24.068 15.423 23.786C15.376 23.832 15.3226 23.8715 15.2713 23.9121M15.5404 17.9379C15.3279 17.8771 15.1165 17.813 14.9093 17.7457C14.8943 17.7425 14.9253 17.7243 14.9317 17.7169C15.1464 17.7788 15.3546 17.8482 15.5671 17.9112C15.5629 17.924 15.5479 17.9272 15.5415 17.9369M15.5607 16.5966C15.5522 16.5966 15.5169 16.5827 15.4902 16.5752C15.3076 16.5175 15.1293 16.4545 14.9541 16.3883C15.1506 16.2986 15.3514 16.2068 15.5201 16.1277C15.5757 16.2463 15.6323 16.3648 15.6889 16.4812C15.6761 16.5069 15.6547 16.5218 15.6301 16.5442C15.6109 16.5613 15.5853 16.5944 15.5607 16.5966ZM15.5864 23.1602C15.581 23.1538 15.5928 23.1485 15.597 23.1453C15.6622 23.0865 15.7337 23.0289 15.8032 22.9712C16.0061 22.8035 16.2186 22.6316 16.4322 22.4693C16.3884 22.5152 16.3393 22.5568 16.2912 22.5974C16.8092 22.166 17.3389 21.7121 17.8622 21.271C17.9348 21.2966 18.0096 21.3212 18.0843 21.3447C17.2556 21.9524 16.4151 22.5515 15.5864 23.1592M18.4944 20.9709C18.4239 21.0414 18.347 21.1258 18.2691 21.192C18.1932 21.1706 18.1238 21.1407 18.048 21.1194C18.1366 21.0361 18.2328 20.9613 18.3246 20.8823C18.3919 20.8994 18.4517 20.9218 18.52 20.9378C18.5222 20.9549 18.504 20.9624 18.4944 20.9709ZM18.3428 11.5761C18.3299 11.5473 18.3118 11.5163 18.3096 11.4939C18.3054 11.464 18.3171 11.4277 18.3214 11.3946C18.3257 11.354 18.3267 11.3209 18.3321 11.2846C18.5115 11.6551 18.6824 12.0353 18.8607 12.4081C18.8671 12.5394 18.8767 12.6697 18.8831 12.8021C18.7048 12.4027 18.5243 11.9894 18.3438 11.5761M20.3142 23.3129C20.3174 23.4464 20.3217 23.5789 20.3259 23.7124C20.1156 23.3076 19.9126 22.8975 19.7012 22.496C19.73 22.5248 19.7535 22.56 19.7781 22.5921C19.9532 22.827 20.138 23.0748 20.3142 23.3119M19.7183 21.3137C19.7418 21.381 19.7685 21.4429 19.793 21.5092C19.7354 21.4355 19.6788 21.3618 19.6264 21.2828C19.6563 21.2934 19.6852 21.3052 19.7183 21.3127M19.2975 12.1688C19.3605 12.2895 19.416 12.4177 19.478 12.5383C19.4823 12.5789 19.4812 12.6238 19.4855 12.6644C19.4225 12.533 19.3637 12.3942 19.3007 12.2617C19.3028 12.2276 19.2954 12.203 19.2964 12.1699M19.3851 12.9901C19.3691 12.9559 19.3424 12.9196 19.3338 12.8833C19.3263 12.8502 19.3285 12.7925 19.3263 12.7466C19.3199 12.6355 19.3146 12.5127 19.3071 12.3952C19.3445 12.4657 19.4 12.5885 19.4438 12.6761C19.462 12.7135 19.4876 12.7498 19.4919 12.7872C19.4983 12.8395 19.4961 12.9164 19.4993 12.9762C19.4993 12.9965 19.5058 13.0232 19.5026 13.0349C19.4961 13.0681 19.4577 13.0798 19.4321 13.1012C19.4182 13.067 19.4032 13.0296 19.384 12.9912M19.4438 22.1563C19.462 22.166 19.4748 22.1884 19.4887 22.2076C19.5015 22.2247 19.5218 22.2428 19.5335 22.2642C19.5421 22.2813 19.5463 22.3091 19.5559 22.3304C19.5784 22.3902 19.6083 22.4586 19.6296 22.5227C19.5645 22.403 19.51 22.2738 19.4449 22.1563M19.9714 24.6052C19.9244 24.5101 19.8197 24.2346 19.6959 23.8832C19.6713 23.7551 19.6489 23.628 19.6254 23.5009C19.8379 23.895 20.0493 24.3467 20.2683 24.7579C20.3003 24.8155 20.3345 24.8796 20.358 24.9384C20.358 24.9405 20.358 24.9426 20.358 24.9448C20.3687 25.0014 20.3633 25.0719 20.3655 25.137C20.3655 25.2192 20.3687 25.3004 20.3708 25.3826C20.1989 25.0484 20.0387 24.7365 19.9725 24.6052M25.1926 29.8648C25.2599 29.9545 25.3272 30.0496 25.3955 30.1425C25.576 30.3871 25.7629 30.6263 25.9434 30.8773C26.0331 31.0033 26.1239 31.1293 26.1794 31.2799C26.1773 31.2938 26.1506 31.2607 26.1431 31.25C25.953 31.046 25.7682 30.8217 25.6038 30.5846C25.4265 30.3305 25.2759 30.0507 25.1232 29.7783C25.151 29.804 25.1713 29.8339 25.1937 29.8638M22.7032 20.0044C23.0118 20.0845 23.3216 20.1646 23.6323 20.2458L23.595 20.2789C23.297 20.1881 23.0012 20.0963 22.7021 20.0044M23.1752 21.5017C23.0471 21.4664 22.9189 21.4291 22.7908 21.3949C22.7406 21.2902 22.6851 21.192 22.6349 21.0873C22.7662 21.1279 22.8997 21.1685 23.0343 21.2048C23.0813 21.3041 23.1304 21.4002 23.1752 21.5017ZM23.2233 19.5164C23.2233 19.5164 23.2383 19.5228 23.2233 19.5238C22.9253 19.4277 22.6295 19.3327 22.3284 19.2387C22.2974 19.1885 22.2782 19.1266 22.2472 19.0764C22.2888 19.087 22.3284 19.1095 22.3689 19.1287C22.6477 19.2579 22.9392 19.3882 23.2233 19.5164ZM22.6092 17.9903C22.527 18.0639 22.4469 18.1366 22.3625 18.2081C22.1383 18.1056 21.9193 17.9988 21.6929 17.8973C21.6214 17.7371 21.5466 17.5812 21.4719 17.4242C21.5092 17.3794 21.5573 17.3452 21.6011 17.3068C22.0219 17.4573 22.4309 17.6197 22.8538 17.7681C22.778 17.8482 22.6915 17.9166 22.6092 17.9903ZM22.0486 19.1458C21.9567 19.1159 21.8659 19.0849 21.7709 19.0571C21.8147 19.0069 21.8649 18.9632 21.9151 18.9204C21.9279 18.9226 21.9354 18.9301 21.9492 18.9322C21.9813 19.0048 22.0176 19.0732 22.0486 19.1458ZM21.6897 18.8136C21.663 18.8457 21.6278 18.8767 21.5936 18.9055C21.5851 18.914 21.5733 18.9301 21.5605 18.9279C21.5338 18.8542 21.4986 18.7891 21.4719 18.7165C21.5466 18.7464 21.6139 18.7837 21.6897 18.8126M23.2425 17.4306C22.8164 17.2843 22.386 17.1423 21.9642 16.9949C21.9471 16.9906 21.977 16.9757 21.9823 16.9693C21.9973 16.9575 22.0101 16.9426 22.0272 16.9319C22.448 17.0825 22.8623 17.2395 23.2863 17.3869C23.2863 17.4018 23.2564 17.4189 23.2425 17.4317M24.8316 17.86C25.7191 18.1697 27.4225 18.7624 28.3249 19.0593C28.3538 19.07 28.3826 19.0838 28.4136 19.0935C28.4392 19.102 28.4776 19.1031 28.4915 19.134C28.468 19.1575 28.405 19.1533 28.3698 19.1415C28.3409 19.1319 28.3207 19.1127 28.3068 19.102C27.4086 18.7869 25.7148 18.1932 24.8316 17.8642C24.8263 17.8621 24.8284 17.86 24.8316 17.861M28.0291 19.0838C28.0633 19.0967 28.0974 19.1052 28.1295 19.1159C28.2203 19.1533 28.3228 19.1885 28.421 19.2237C28.4413 19.2312 28.467 19.2334 28.4798 19.2536C28.1284 19.1308 26.9708 18.7389 26.6194 18.6139C25.5717 18.2455 24.5198 17.876 23.4625 17.5097C23.4743 17.4937 23.4892 17.4819 23.5031 17.4691C24.7398 17.9144 26.7924 18.6332 28.028 19.0838M30.8464 11.1019C30.7791 11.1628 30.699 11.213 30.621 11.2718C30.0913 11.6701 29.5659 12.0877 29.0469 12.502C27.8582 13.4493 26.7048 14.4361 25.5579 15.4304C25.0036 15.9109 24.4493 16.3915 23.8908 16.871C23.8748 16.8849 23.8577 16.9031 23.8352 16.9073C23.4102 16.7632 22.9926 16.6126 22.5676 16.4684C22.5558 16.4567 22.5783 16.4481 22.5836 16.4428C22.6423 16.3841 22.7171 16.3274 22.7822 16.2698C23.0054 16.0701 23.2361 15.8704 23.4615 15.6707C23.6131 15.5372 23.7669 15.4047 23.9164 15.2712C23.9922 15.204 24.0638 15.1313 24.1417 15.0683C24.5294 14.7511 24.9267 14.4286 25.3208 14.1146C25.3987 14.0527 25.4948 14.0057 25.5867 13.9513C27.2826 12.9559 29.0682 12.0321 30.8453 11.1019M31.4733 10.2412C30.8827 10.5658 30.2729 10.8659 29.6737 11.1799C29.5894 11.2237 29.5039 11.2728 29.4228 11.3177C28.9134 11.5857 28.3986 11.857 27.8967 12.1379C27.9234 12.109 27.9597 12.0909 27.9928 12.0674C28.4969 11.7203 29.049 11.4095 29.6086 11.1094C29.7581 11.0293 29.913 10.9578 30.0668 10.8809C30.2195 10.804 30.3775 10.7356 30.5324 10.663C30.8432 10.5167 31.1603 10.3768 31.4743 10.2348C31.4893 10.2348 31.4743 10.2369 31.4743 10.2422M32.6608 8.28041C32.7099 8.26867 32.7612 8.25692 32.8125 8.25051C32.9171 8.23556 33.025 8.23129 33.1264 8.25371C33.1489 8.25905 33.1702 8.26439 33.1927 8.26867C33.2172 8.27294 33.2429 8.27294 33.2631 8.28041C33.3037 8.29216 33.3475 8.33168 33.3806 8.36158C33.4554 8.42672 33.5109 8.49507 33.5622 8.58051C33.5878 8.62216 33.6177 8.67235 33.6252 8.72789C33.6337 8.79196 33.6252 8.87099 33.6145 8.9308C33.5472 9.27895 33.2503 9.4338 32.9855 9.58866C32.963 9.60254 32.9417 9.61749 32.9193 9.62924C32.8979 9.64099 32.8595 9.65594 32.8488 9.66341C32.8114 9.68798 32.7505 9.71895 32.7377 9.72536C32.7067 9.71574 32.6704 9.69866 32.6309 9.7104C32.6715 9.69225 32.7633 9.64953 32.805 9.62924C33.0389 9.50536 33.245 9.35584 33.4404 9.19245C33.5184 9.12089 33.5771 8.98847 33.5782 8.83468C33.5782 8.67129 33.4821 8.54633 33.3934 8.45342C33.3614 8.42032 33.3304 8.38507 33.2973 8.36478C33.2493 8.33488 33.1895 8.31459 33.135 8.30177C32.9812 8.26653 32.7932 8.2975 32.6437 8.32634C32.3458 8.38614 32.0596 8.46624 31.783 8.55274C31.4017 8.67022 31.0418 8.79944 30.699 8.92225C31.2767 8.67876 31.9741 8.44167 32.6619 8.27935M29.6684 10.2049C29.6834 10.191 29.7581 10.1355 29.7592 10.1355C29.7496 10.1248 29.7293 10.1002 29.6983 10.0596C29.9247 9.91652 30.1479 9.77448 30.401 9.66128C30.6541 9.54808 30.9275 9.46584 31.202 9.36546C31.6046 9.21915 32.0158 9.08565 32.4547 8.97031C32.5562 8.94361 32.6544 8.91157 32.7591 8.89342C32.8061 8.88594 32.8541 8.87954 32.9043 8.87847C32.915 8.8806 32.9022 8.89235 32.9011 8.89235C32.8071 8.9639 32.6832 9.02264 32.5722 9.08138C32.3319 9.20953 32.0852 9.32914 31.8299 9.44662C31.7007 9.50642 31.5662 9.55342 31.4337 9.60575C31.3024 9.65914 31.1689 9.70934 31.0386 9.76487C30.6552 9.9272 29.9514 10.2657 29.8927 10.301C29.6086 10.4409 29.3352 10.5915 29.065 10.7442C29.159 10.6491 29.2829 10.5466 29.41 10.4377C29.4901 10.3683 29.5787 10.2828 29.6684 10.2059M21.7784 15.1281C21.8798 15.0406 21.9877 14.9455 22.071 14.874C22.4715 14.5279 22.8623 14.1905 23.2532 13.8615C23.3525 13.7772 23.455 13.696 23.5533 13.6106C23.8416 13.3553 24.1268 13.0883 24.4141 12.8267C25.1851 12.1272 25.9423 11.4437 26.7241 10.7463C27.1128 10.4003 27.4973 10.0489 27.8849 9.71147C28.4648 9.20633 29.0479 8.6809 29.6588 8.19284C29.8692 8.0241 30.0806 7.85857 30.3049 7.72187C29.9738 8.28896 29.4986 8.73216 28.9967 9.14225C28.8973 9.22449 28.8023 9.31313 28.7051 9.39749C28.3388 9.71574 27.9757 10.0297 27.6041 10.3437C27.5912 10.3544 27.5763 10.3619 27.5635 10.3725C27.3606 10.5487 27.1459 10.7271 26.9376 10.9044C26.5457 11.2419 26.142 11.5665 25.7554 11.9061C25.3678 12.2468 24.978 12.5864 24.5871 12.9228C24.3916 13.0915 24.1941 13.2581 23.9997 13.429C23.6131 13.7686 23.2222 14.1072 22.8324 14.4457C22.2504 14.9519 21.6406 15.4368 21.0511 15.9387C21.0287 15.927 20.9379 15.9152 20.9176 15.8939C20.9048 15.88 20.909 15.8907 20.9176 15.8789C20.9293 15.865 20.9614 15.8405 20.9731 15.8309C21.2401 15.5991 21.5114 15.361 21.7784 15.1281ZM21.3832 17.7532C21.317 17.7275 21.2593 17.6934 21.1942 17.6677C21.2241 17.6336 21.2636 17.609 21.2935 17.5759C21.2978 17.5759 21.2999 17.5759 21.2999 17.5791C21.3277 17.6378 21.3555 17.6944 21.3822 17.7532M21.7773 14.2268C21.4911 14.513 21.2166 14.7981 20.924 15.0908C20.9197 15.095 20.9058 15.1068 20.8941 15.1164C20.8823 15.1271 20.8813 15.141 20.8685 15.1313C20.861 15.126 20.8514 15.1036 20.8578 15.0908C20.8567 15.0918 20.8856 15.0673 20.8866 15.0651C21.4879 14.4874 22.0838 13.8893 22.6797 13.3094C22.3924 13.601 22.0795 13.9235 21.7773 14.2257M20.531 12.8502C20.531 12.8107 20.5235 12.7637 20.531 12.7316C20.5374 12.7092 20.5833 12.6804 20.6132 12.6537C20.6965 12.58 20.782 12.501 20.861 12.4316C21.1995 12.1368 21.5306 11.8431 21.8617 11.5484C21.9727 11.4501 22.0891 11.3551 22.1981 11.2568C22.2536 11.2077 22.3091 11.1586 22.3657 11.1084C22.6413 10.8681 22.9264 10.6203 23.2009 10.3768C22.7662 10.8456 22.3166 11.3166 21.8702 11.7886C21.5359 12.1421 21.2027 12.4946 20.8727 12.8523C20.7638 12.9709 20.6549 13.0883 20.5395 13.2005C20.5374 13.0958 20.5321 12.9645 20.5321 12.8491M20.5577 14.4276C20.562 14.3977 20.6421 14.3304 20.6805 14.2909C20.9753 13.9886 21.2636 13.6661 21.5498 13.3639C21.6737 13.2304 21.7944 13.0958 21.9193 12.9602C22.119 12.7423 22.3348 12.5181 22.5366 12.2991C22.8228 11.9862 23.1165 11.684 23.4049 11.3711C23.4454 11.3273 23.4903 11.2867 23.5309 11.2408C23.8577 10.882 24.2176 10.5594 24.5582 10.2177C24.7302 10.0468 24.9085 9.88235 25.0794 9.71147C25.591 9.19992 26.1217 8.70332 26.6493 8.20459C26.7369 8.12129 26.8298 8.04119 26.9195 7.96003C27.1854 7.7176 27.4524 7.46877 27.7279 7.23168C27.9127 7.07363 28.0996 6.91557 28.2865 6.76285C28.4766 6.60586 28.6677 6.45101 28.86 6.3047C28.8642 6.30043 28.8696 6.30363 28.8632 6.3047C27.8604 7.36945 26.8212 8.40002 25.7949 9.44555C25.5397 9.7072 25.2823 9.96671 25.0228 10.2262C24.9801 10.27 24.932 10.3085 24.8904 10.3522C24.869 10.3747 24.8519 10.4014 24.8316 10.4227C23.6067 11.6466 22.3732 12.8801 21.1461 14.1072C21.0169 14.2364 20.8845 14.3613 20.7542 14.4916C20.7222 14.5237 20.6923 14.5568 20.6581 14.5878C20.6485 14.5963 20.6399 14.6112 20.625 14.6091C20.6047 14.5504 20.5641 14.513 20.5577 14.4393C20.5577 14.4361 20.5577 14.4329 20.5577 14.4286M20.8183 21.7356L21.1194 22.1713C21.0222 22.1382 20.924 22.1051 20.8279 22.0709C20.8225 21.9609 20.8204 21.8477 20.8183 21.7356ZM22.4138 27.7962C22.4117 27.8112 22.3967 27.7716 22.3914 27.762C22.2718 27.5378 22.15 27.2996 22.0368 27.0679C21.9129 26.819 21.7837 26.5723 21.6588 26.3246C21.4099 25.829 21.1493 25.3346 20.9016 24.8476C20.8962 24.5902 20.8866 24.3371 20.8834 24.0776C21.4056 25.3057 21.9108 26.5499 22.4138 27.7962ZM23.0492 25.9476C22.8816 25.7361 22.7246 25.5119 22.5654 25.2897C22.0966 24.6425 21.6235 24.0007 21.1493 23.3525C21.1088 23.298 21.0789 23.2104 21.05 23.1389C20.9923 22.9979 20.9347 22.8537 20.8759 22.7095C20.8631 22.6807 20.846 22.6497 20.8428 22.6241C20.8332 22.5664 20.8428 22.5013 20.8396 22.4404C20.8364 22.3763 20.8343 22.3155 20.8322 22.2589C20.9827 22.308 21.1333 22.3582 21.2828 22.4084L22.6178 24.3403C22.7652 24.8786 22.8965 25.4168 23.0535 25.9476C23.0535 25.9508 23.0546 25.9508 23.0567 25.9508C23.0556 25.9561 23.0503 25.9508 23.0492 25.9476ZM22.92 21.6469C22.9136 21.6395 22.9125 21.6266 22.9051 21.6202C22.9051 21.616 22.9083 21.6181 22.9083 21.6202C23.0065 21.6469 23.1144 21.6726 23.219 21.7014C23.2479 21.7099 23.2927 21.7163 23.297 21.7537C23.1678 21.7217 23.0471 21.6811 22.92 21.6469ZM24.9395 28.3644C24.5935 27.9201 24.2368 27.4716 23.8876 27.0198C23.863 26.9878 23.831 26.9579 23.8139 26.929C23.7947 26.8927 23.7861 26.8457 23.7701 26.8019C23.6152 26.4036 23.47 25.9935 23.3312 25.5781L24.9395 28.3644ZM23.9773 23.1592C23.8609 23.1282 23.7338 23.0759 23.6152 23.0374C23.5319 22.8697 23.4476 22.7042 23.3675 22.5344C23.4903 22.5707 23.6067 22.6134 23.7295 22.6487C23.8117 22.8195 23.8918 22.9926 23.9783 23.1592M33.0613 24.1139C33.0869 24.0861 33.1158 24.0872 33.1403 24.0861C33.1574 24.1417 33.1542 24.2282 33.1446 24.2976C33.135 24.3585 33.1168 24.4375 33.0698 24.4524C33.0367 24.4642 32.9673 24.4418 32.9107 24.4268C32.1567 24.2378 31.4049 24.0221 30.6669 23.8202C30.0668 23.6558 29.4762 23.4892 28.8781 23.3247C27.2922 22.8911 25.7084 22.4404 24.1257 21.994C23.9751 21.9513 23.8043 21.9086 23.6451 21.8573C23.6398 21.8552 23.6334 21.852 23.6259 21.8509C23.5843 21.8328 23.5309 21.8434 23.5266 21.7879C23.5298 21.7879 23.5298 21.79 23.5298 21.7911C23.7274 21.8413 23.9217 21.899 24.1172 21.9502C24.7035 22.1019 25.293 22.2653 25.8846 22.4233C26.6728 22.6348 27.4652 22.8334 28.2576 23.0374C29.0469 23.2392 29.8371 23.4486 30.6232 23.6579C30.8175 23.7102 31.0087 23.7711 31.2031 23.8245C31.4978 23.9067 31.7926 23.9783 32.0937 24.0541C32.1931 24.0787 32.2934 24.1011 32.3896 24.131C32.5775 24.1908 32.7612 24.2581 32.947 24.3157C32.9695 24.2976 32.9844 24.2698 32.9801 24.241C32.9748 24.1993 32.9257 24.1833 32.8787 24.1726C32.9385 24.1833 33.0015 24.1588 33.0602 24.1128M32.8338 24.1556C32.8424 24.1588 32.8509 24.1641 32.8595 24.1684C32.8616 24.1684 32.8648 24.1684 32.8669 24.1705C32.8541 24.1684 32.8413 24.1652 32.8306 24.162C32.8306 24.1598 32.8328 24.1577 32.8328 24.1556M31.6078 23.7818C31.6772 23.801 31.7199 23.8181 31.7691 23.8341C32.1151 23.942 32.4675 24.0466 32.8157 24.1556C32.7559 24.1502 32.6939 24.1459 32.6352 24.1289C32.5957 24.1192 32.5551 24.099 32.5166 24.0851C32.24 23.9847 31.9528 23.896 31.6591 23.8042C31.7317 23.833 31.8086 23.8587 31.8844 23.8854C31.8086 23.8736 31.736 23.8491 31.6633 23.8266C31.1571 23.6728 30.6445 23.5137 30.1404 23.3525C29.5616 23.1666 28.9796 22.9958 28.404 22.8057C29.4762 23.1271 30.5409 23.455 31.6089 23.7818M25.6326 21.9748C25.7084 21.9972 25.7821 22.025 25.8579 22.0528C26.2285 22.183 26.6141 22.3144 26.9932 22.434C28.2267 22.8217 29.4612 23.1933 30.6819 23.5906C28.2587 22.9253 25.8409 22.2514 23.4305 21.5732C23.4091 21.5562 23.4059 21.5263 23.3942 21.5028C23.3621 21.4344 23.3216 21.3596 23.2906 21.2838C23.6046 21.3757 23.9175 21.4664 24.2304 21.5615C24.6971 21.7035 25.1648 21.8349 25.6347 21.9759M26.7166 20.4145C26.7123 20.3547 26.6899 20.2992 26.6536 20.2511C28.3922 20.2009 31.3451 20.1283 31.9389 20.1838C32.5572 20.2426 28.8023 20.3568 26.7177 20.4145" fill="#5A12AA"/>
<path d="M42.5286 15.7988C44.2192 16.3114 45.3363 17.1113 45.3363 18.8628C45.3363 20.9613 43.3894 22.3347 41.3368 22.3347C39.5565 22.3347 37.8809 21.5946 36.8855 20.312L38.1682 18.8179C39.1346 19.9649 40.1909 20.4786 41.3827 20.4786C42.3641 20.4786 43.2399 20.0108 43.2399 19.1052C43.2399 18.3811 42.8469 18.0191 41.9273 17.7467L40.0552 17.1882C38.4853 16.7204 37.4291 15.9355 37.4291 14.2449C37.4291 12.4486 39.0449 10.9396 41.2631 10.9396C42.9088 10.9396 44.2523 11.559 45.1568 12.4935L43.9501 14.0783C43.1961 13.2784 42.2894 12.7957 41.2332 12.7957C40.2378 12.7957 39.5576 13.3243 39.5576 14.0783C39.5576 14.7116 39.9954 15.0437 40.7654 15.2712L42.5297 15.7988H42.5286Z" fill="#5A12AA"/>
<path d="M48.5658 15.8895H48.5957C48.9427 15.2862 49.7725 14.7276 50.7988 14.7276C52.7457 14.7276 54.2857 16.2975 54.2857 18.5306C54.2857 20.7637 52.7468 22.3347 50.7988 22.3347C49.7725 22.3347 48.9427 21.7761 48.5957 21.1717H48.5658V25.0206H46.543V14.9081H48.5658V15.8885V15.8895ZM50.392 20.5384C51.524 20.5384 52.279 19.5868 52.279 18.5306C52.279 17.4744 51.524 16.5239 50.392 16.5239C49.2599 16.5239 48.5059 17.4744 48.5059 18.5306C48.5059 19.5868 49.2599 20.5384 50.392 20.5384Z" fill="#5A12AA"/>
<path d="M58.0428 17.8065L59.7483 17.6709C59.7483 16.9319 59.2357 16.4791 58.2243 16.4791C57.4703 16.4791 56.6694 16.8411 56.1269 17.2181L55.4327 15.724C56.066 15.2563 57.3037 14.7276 58.5725 14.7276C60.5952 14.7276 61.7261 15.9205 61.7261 17.7756V22.1531H59.7793V21.2325H59.7494C59.523 21.7003 58.6771 22.3347 57.6209 22.3347C56.2027 22.3347 55.0845 21.5348 55.0845 20.1005C55.0845 18.6662 56.5337 17.9272 58.0428 17.8065ZM59.7483 19.0144L58.3899 19.134C57.5141 19.2088 56.9716 19.4362 56.9716 20.0396C56.9716 20.5533 57.4842 20.8406 58.0727 20.8406C58.9933 20.8406 59.7483 20.2521 59.7483 19.2258V19.0144Z" fill="#5A12AA"/>
<path d="M65.2568 18.4708V22.1531H63.2341V14.9092H65.2568V16.1469H65.2867C65.5729 15.3919 66.313 14.7885 67.1428 14.7885C67.3083 14.7885 67.4899 14.8034 67.6255 14.8333V16.9158C67.4141 16.84 67.1428 16.7802 66.8406 16.7802C65.905 16.7802 65.2557 17.4445 65.2557 18.4708" fill="#5A12AA"/>
<path d="M70.8561 18.4558V22.1531H68.8344V11.1361H70.8561V18.0938L73.6637 14.9092H76.0186L72.9995 18.2294L76.1083 22.1531H73.6787L70.8561 18.4558Z" fill="#5A12AA"/>
<path d="M80.7614 18.2252H83.6182V17.5492H81.7407L83.5348 15.6439V14.9124H80.8436V15.5745H82.5481L80.7603 17.4936V18.2252H80.7614ZM77.2136 18.2252H78.0424V16.4032C78.0424 16.2932 78.0584 16.1832 78.0904 16.0754C78.1225 15.9675 78.1694 15.8725 78.2314 15.7892C78.2933 15.7069 78.3724 15.6386 78.4695 15.5852C78.5657 15.5329 78.681 15.5062 78.8145 15.5062C78.948 15.5062 79.0548 15.5339 79.1359 15.5884C79.216 15.6439 79.2801 15.7144 79.326 15.7988C79.372 15.8842 79.4019 15.9793 79.4157 16.085C79.4296 16.1907 79.436 16.2922 79.436 16.3883V18.2241H80.2648V16.1533C80.2648 15.9835 80.2413 15.818 80.1954 15.6567C80.1494 15.4955 80.0768 15.3534 79.9786 15.2285C79.8792 15.1046 79.7532 15.0042 79.5984 14.9284C79.4446 14.8526 79.2588 14.8141 79.043 14.8141C78.7942 14.8141 78.5795 14.8782 78.398 15.0042C78.2164 15.1313 78.0883 15.2765 78.0146 15.4421H78.0007V14.9113H77.2136V18.2241V18.2252Z" fill="#5A12AA"/>
</g>
<defs>
<clipPath id="clip0_1303_778">
<rect width="84" height="33.2182" fill="white"/>
</clipPath>
</defs>
</svg>
